<svg id="my-svg" width="100%" xmlns="http://www.w3.org/2000/svg" xmlns:xlink="http://www.w3.org/1999/xlink" class="statediagram" style="max-width: 517.887px; background-color: white;" viewBox="0 0 517.88671875 538" role="graphics-document document" aria-roledescription="stateDiagram"><style>#my-svg{font-family:Arial,Helvetica,sans-serif;font-size:15px;fill:#111111;}@keyframes edge-animation-frame{from{stroke-dashoffset:0;}}@keyframes dash{to{stroke-dashoffset:0;}}#my-svg .edge-animation-slow{stroke-dasharray:9,5!important;stroke-dashoffset:900;animation:dash 50s linear infinite;stroke-linecap:round;}#my-svg .edge-animation-fast{stroke-dasharray:9,5!important;stroke-dashoffset:900;animation:dash 20s linear infinite;stroke-linecap:round;}#my-svg .error-icon{fill:#fef3c7;}#my-svg .error-text{fill:#111111;stroke:#111111;}#my-svg .edge-thickness-normal{stroke-width:1px;}#my-svg .edge-thickness-thick{stroke-width:3.5px;}#my-svg .edge-pattern-solid{stroke-dasharray:0;}#my-svg .edge-thickness-invisible{stroke-width:0;fill:none;}#my-svg .edge-pattern-dashed{stroke-dasharray:3;}#my-svg .edge-pattern-dotted{stroke-dasharray:2;}#my-svg .marker{fill:#374151;stroke:#374151;}#my-svg .marker.cross{stroke:#374151;}#my-svg svg{font-family:Arial,Helvetica,sans-serif;font-size:15px;}#my-svg p{margin:0;}#my-svg defs #statediagram-barbEnd{fill:#374151;stroke:#374151;}#my-svg g.stateGroup text{fill:#64748b;stroke:none;font-size:10px;}#my-svg g.stateGroup text{fill:#111111;stroke:none;font-size:10px;}#my-svg g.stateGroup .state-title{font-weight:bolder;fill:#111111;}#my-svg g.stateGroup rect{fill:#ffffff;stroke:#64748b;}#my-svg g.stateGroup line{stroke:#374151;stroke-width:1;}#my-svg .transition{stroke:#374151;stroke-width:1;fill:none;}#my-svg .stateGroup .composit{fill:#ffffff;border-bottom:1px;}#my-svg .stateGroup .alt-composit{fill:#e0e0e0;border-bottom:1px;}#my-svg .state-note{stroke:hsl(52.6829268293, 60%, 73.9215686275%);fill:#fff5ad;}#my-svg .state-note text{fill:#333;stroke:none;font-size:10px;}#my-svg .stateLabel .box{stroke:none;stroke-width:0;fill:#ffffff;opacity:0.5;}#my-svg .edgeLabel .label rect{fill:#ffffff;opacity:0.5;}#my-svg .edgeLabel{background-color:#ffffff;text-align:center;}#my-svg .edgeLabel p{background-color:#ffffff;}#my-svg .edgeLabel rect{opacity:0.5;background-color:#ffffff;fill:#ffffff;}#my-svg .edgeLabel .label text{fill:#111111;}#my-svg .label div .edgeLabel{color:#111111;}#my-svg .stateLabel text{fill:#111111;font-size:10px;font-weight:bold;}#my-svg .node circle.state-start{fill:#374151;stroke:#374151;}#my-svg .node .fork-join{fill:#374151;stroke:#374151;}#my-svg .node circle.state-end{fill:#64748b;stroke:#ffffff;stroke-width:1.5;}#my-svg .end-state-inner{fill:#ffffff;stroke-width:1.5;}#my-svg .node rect{fill:#ffffff;stroke:#64748b;stroke-width:1px;}#my-svg .node polygon{fill:#ffffff;stroke:#64748b;stroke-width:1px;}#my-svg #statediagram-barbEnd{fill:#374151;}#my-svg .statediagram-cluster rect{fill:#ffffff;stroke:#64748b;stroke-width:1px;}#my-svg .cluster-label,#my-svg .nodeLabel{color:#111111;}#my-svg .statediagram-cluster rect.outer{rx:5px;ry:5px;}#my-svg .statediagram-state .divider{stroke:#64748b;}#my-svg .statediagram-state .title-state{rx:5px;ry:5px;}#my-svg .statediagram-cluster.statediagram-cluster .inner{fill:#ffffff;}#my-svg .statediagram-cluster.statediagram-cluster-alt .inner{fill:#fef3c7;}#my-svg .statediagram-cluster .inner{rx:0;ry:0;}#my-svg .statediagram-state rect.basic{rx:5px;ry:5px;}#my-svg .statediagram-state rect.divider{stroke-dasharray:10,10;fill:#fef3c7;}#my-svg .note-edge{stroke-dasharray:5;}#my-svg .statediagram-note rect{fill:#fff5ad;stroke:hsl(52.6829268293, 60%, 73.9215686275%);stroke-width:1px;rx:0;ry:0;}#my-svg .statediagram-note rect{fill:#fff5ad;stroke:hsl(52.6829268293, 60%, 73.9215686275%);stroke-width:1px;rx:0;ry:0;}#my-svg .statediagram-note text{fill:#333;}#my-svg .statediagram-note .nodeLabel{color:#333;}#my-svg .statediagram .edgeLabel{color:red;}#my-svg #dependencyStart,#my-svg #dependencyEnd{fill:#374151;stroke:#374151;stroke-width:1;}#my-svg .statediagramTitleText{text-anchor:middle;font-size:18px;fill:#111111;}#my-svg :root{--mermaid-font-family:"trebuchet ms",verdana,arial,sans-serif;}</style><g><defs><marker id="my-svg_stateDiagram-barbEnd" refX="19" refY="7" markerWidth="20" markerHeight="14" markerUnits="userSpaceOnUse" orient="auto"><path d="M 19,7 L9,13 L14,7 L9,1 Z"/></marker></defs><g class="root"><g class="clusters"/><g class="edgePaths"><path d="M260.379,22L260.379,28.042C260.379,34.083,260.379,46.167,260.379,58.25C260.379,70.333,260.379,82.417,260.379,88.458L260.379,94.5" id="edge0" class="edge-thickness-normal edge-pattern-solid transition" style="fill:none;;;fill:none" data-edge="true" data-et="edge" data-id="edge0" data-points="W3sieCI6MjYwLjM3ODkwNjI1LCJ5IjoyMn0seyJ4IjoyNjAuMzc4OTA2MjUsInkiOjU4LjI1fSx7IngiOjI2MC4zNzg5MDYyNSwieSI6OTQuNX1d" marker-end="url(#my-svg_stateDiagram-barbEnd)"/><path d="M242.209,133L236.506,139.042C230.803,145.083,219.398,157.167,213.695,169.25C207.992,181.333,207.992,193.417,207.992,199.458L207.992,205.5" id="edge1" class="edge-thickness-normal edge-pattern-solid transition" style="fill:none;;;fill:none" data-edge="true" data-et="edge" data-id="edge1" data-points="W3sieCI6MjQyLjIwODczODAzNDkwOTksInkiOjEzM30seyJ4IjoyMDcuOTkyMTg3NSwieSI6MTY5LjI1fSx7IngiOjIwNy45OTIxODc1LCJ5IjoyMDUuNX1d" marker-end="url(#my-svg_stateDiagram-barbEnd)"/><path d="M302.551,127.958L322.978,134.84C343.405,141.722,384.259,155.486,404.686,171.618C425.113,187.75,425.113,206.25,425.113,224.75C425.113,243.25,425.113,261.75,425.113,280.25C425.113,298.75,425.113,317.25,425.113,335.75C425.113,354.25,425.113,372.75,413.708,388.042C402.302,403.333,379.491,415.417,368.086,421.458L356.68,427.5" id="edge2" class="edge-thickness-normal edge-pattern-solid transition" style="fill:none;;;fill:none" data-edge="true" data-et="edge" data-id="edge2" data-points="W3sieCI6MzAyLjU1MDc4MTI1LCJ5IjoxMjcuOTU3OTU3ODg2NzQ5NX0seyJ4Ijo0MjUuMTEzMjgxMjUsInkiOjE2OS4yNX0seyJ4Ijo0MjUuMTEzMjgxMjUsInkiOjIyNC43NX0seyJ4Ijo0MjUuMTEzMjgxMjUsInkiOjI4MC4yNX0seyJ4Ijo0MjUuMTEzMjgxMjUsInkiOjMzNS43NX0seyJ4Ijo0MjUuMTEzMjgxMjUsInkiOjM5MS4yNX0seyJ4IjozNTYuNjgwMTgwMTgwMTgwMiwieSI6NDI3LjV9XQ==" marker-end="url(#my-svg_stateDiagram-barbEnd)"/><path d="M181.304,244L172.928,250.042C164.552,256.083,147.799,268.167,139.423,280.25C131.047,292.333,131.047,304.417,131.047,310.458L131.047,316.5" id="edge3" class="edge-thickness-normal edge-pattern-solid transition" style="fill:none;;;fill:none" data-edge="true" data-et="edge" data-id="edge3" data-points="W3sieCI6MTgxLjMwMzk0ODQ3OTcyOTc0LCJ5IjoyNDR9LHsieCI6MTMxLjA0Njg3NSwieSI6MjgwLjI1fSx7IngiOjEzMS4wNDY4NzUsInkiOjMxNi41fV0=" marker-end="url(#my-svg_stateDiagram-barbEnd)"/><path d="M246.96,244L259.19,250.042C271.42,256.083,295.88,268.167,308.11,283.458C320.34,298.75,320.34,317.25,320.34,335.75C320.34,354.25,320.34,372.75,320.34,388.042C320.34,403.333,320.34,415.417,320.34,421.458L320.34,427.5" id="edge4" class="edge-thickness-normal edge-pattern-solid transition" style="fill:none;;;fill:none" data-edge="true" data-et="edge" data-id="edge4" data-points="W3sieCI6MjQ2Ljk1OTYxNzgyMDk0NTk0LCJ5IjoyNDR9LHsieCI6MzIwLjMzOTg0Mzc1LCJ5IjoyODAuMjV9LHsieCI6MzIwLjMzOTg0Mzc1LCJ5IjozMzUuNzV9LHsieCI6MzIwLjMzOTg0Mzc1LCJ5IjozOTEuMjV9LHsieCI6MzIwLjMzOTg0Mzc1LCJ5Ijo0MjcuNX1d" marker-end="url(#my-svg_stateDiagram-barbEnd)"/><path d="M107.334,355L99.892,361.042C92.449,367.083,77.564,379.167,70.122,391.25C62.68,403.333,62.68,415.417,62.68,421.458L62.68,427.5" id="edge5" class="edge-thickness-normal edge-pattern-solid transition" style="fill:none;;;fill:none" data-edge="true" data-et="edge" data-id="edge5" data-points="W3sieCI6MTA3LjMzMzkzMTU4NzgzNzg0LCJ5IjozNTV9LHsieCI6NjIuNjc5Njg3NSwieSI6MzkxLjI1fSx7IngiOjYyLjY3OTY4NzUsInkiOjQyNy41fV0=" marker-end="url(#my-svg_stateDiagram-barbEnd)"/><path d="M154.76,355L162.202,361.042C169.645,367.083,184.529,379.167,205.136,391.25C225.742,403.333,252.069,415.417,265.233,421.458L278.397,427.5" id="edge6" class="edge-thickness-normal edge-pattern-solid transition" style="fill:none;;;fill:none" data-edge="true" data-et="edge" data-id="edge6" data-points="W3sieCI6MTU0Ljc1OTgxODQxMjE2MjE2LCJ5IjozNTV9LHsieCI6MTk5LjQxNDA2MjUsInkiOjM5MS4yNX0seyJ4IjoyNzguMzk3MTE3ODIwOTQ1OTQsInkiOjQyNy41fV0=" marker-end="url(#my-svg_stateDiagram-barbEnd)"/><path d="M62.68,466L62.68,470.167C62.68,474.333,62.68,482.667,85.759,491.916C108.838,501.165,154.997,511.33,178.077,516.412L201.156,521.495" id="edge7" class="edge-thickness-normal edge-pattern-solid transition" style="fill:none;;;fill:none" data-edge="true" data-et="edge" data-id="edge7" data-points="W3sieCI6NjIuNjc5Njg3NSwieSI6NDY2fSx7IngiOjYyLjY3OTY4NzUsInkiOjQ5MX0seyJ4IjoyMDEuMTU1OTg0ODc4NjM3LCJ5Ijo1MjEuNDk0NTY1MjcyMTk4OH1d" marker-end="url(#my-svg_stateDiagram-barbEnd)"/><path d="M320.34,466L320.34,470.167C320.34,474.333,320.34,482.667,302.737,491.847C285.135,501.027,249.93,511.055,232.327,516.069L214.724,521.082" id="edge8" class="edge-thickness-normal edge-pattern-solid transition" style="fill:none;;;fill:none" data-edge="true" data-et="edge" data-id="edge8" data-points="W3sieCI6MzIwLjMzOTg0Mzc1LCJ5Ijo0NjZ9LHsieCI6MzIwLjMzOTg0Mzc1LCJ5Ijo0OTF9LHsieCI6MjE0LjcyNDQyNTE2Mjc3MywieSI6NTIxLjA4MjQ1NTcyMzYwMzZ9XQ==" marker-end="url(#my-svg_stateDiagram-barbEnd)"/></g><g class="edgeLabels"><g class="edgeLabel" transform="translate(260.37890625, 58.25)"><g class="label" data-id="edge0" transform="translate(-43.78125, -11.25)"><foreignObject width="87.5625" height="22.5"><div xmlns="http://www.w3.org/1999/xhtml" class="labelBkg" style="display: table-cell; white-space: nowrap; line-height: 1.5; max-width: 200px; text-align: center;"><span class="edgeLabel"><p>Khách đặt xe</p></span></div></foreignObject></g></g><g class="edgeLabel" transform="translate(207.9921875, 169.25)"><g class="label" data-id="edge1" transform="translate(-57.5390625, -11.25)"><foreignObject width="115.078125" height="22.5"><div xmlns="http://www.w3.org/1999/xhtml" class="labelBkg" style="display: table-cell; white-space: nowrap; line-height: 1.5; max-width: 200px; text-align: center;"><span class="edgeLabel"><p>Tài xế chấp nhận</p></span></div></foreignObject></g></g><g class="edgeLabel" transform="translate(425.11328125, 280.25)"><g class="label" data-id="edge2" transform="translate(-84.7734375, -11.25)"><foreignObject width="169.546875" height="22.5"><div xmlns="http://www.w3.org/1999/xhtml" class="labelBkg" style="display: table-cell; white-space: nowrap; line-height: 1.5; max-width: 200px; text-align: center;"><span class="edgeLabel"><p>Timeout / Không có tài xế</p></span></div></foreignObject></g></g><g class="edgeLabel" transform="translate(131.046875, 280.25)"><g class="label" data-id="edge3" transform="translate(-73.8046875, -11.25)"><foreignObject width="147.609375" height="22.5"><div xmlns="http://www.w3.org/1999/xhtml" class="labelBkg" style="display: table-cell; white-space: nowrap; line-height: 1.5; max-width: 200px; text-align: center;"><span class="edgeLabel"><p>Tài xế bắt đầu chuyến</p></span></div></foreignObject></g></g><g class="edgeLabel" transform="translate(320.33984375, 335.75)"><g class="label" data-id="edge4" transform="translate(-56.703125, -11.25)"><foreignObject width="113.40625" height="22.5"><div xmlns="http://www.w3.org/1999/xhtml" class="labelBkg" style="display: table-cell; white-space: nowrap; line-height: 1.5; max-width: 200px; text-align: center;"><span class="edgeLabel"><p>Tài xế/khách huỷ</p></span></div></foreignObject></g></g><g class="edgeLabel" transform="translate(62.6796875, 391.25)"><g class="label" data-id="edge5" transform="translate(-48.7734375, -11.25)"><foreignObject width="97.546875" height="22.5"><div xmlns="http://www.w3.org/1999/xhtml" class="labelBkg" style="display: table-cell; white-space: nowrap; line-height: 1.5; max-width: 200px; text-align: center;"><span class="edgeLabel"><p>Tài xế kết thúc</p></span></div></foreignObject></g></g><g class="edgeLabel" transform="translate(199.4140625, 391.25)"><g class="label" data-id="edge6" transform="translate(-67.9609375, -11.25)"><foreignObject width="135.921875" height="22.5"><div xmlns="http://www.w3.org/1999/xhtml" class="labelBkg" style="display: table-cell; white-space: nowrap; line-height: 1.5; max-width: 200px; text-align: center;"><span class="edgeLabel"><p>Admin huỷ khẩn cấp</p></span></div></foreignObject></g></g><g class="edgeLabel"><g class="label" data-id="edge7" transform="translate(0, 0)"><foreignObject width="0" height="0"><div xmlns="http://www.w3.org/1999/xhtml" class="labelBkg" style="display: table-cell; white-space: nowrap; line-height: 1.5; max-width: 200px; text-align: center;"><span class="edgeLabel"></span></div></foreignObject></g></g><g class="edgeLabel"><g class="label" data-id="edge8" transform="translate(0, 0)"><foreignObject width="0" height="0"><div xmlns="http://www.w3.org/1999/xhtml" class="labelBkg" style="display: table-cell; white-space: nowrap; line-height: 1.5; max-width: 200px; text-align: center;"><span class="edgeLabel"></span></div></foreignObject></g></g></g><g class="nodes"><g class="node default" id="state-root_start-0" transform="translate(260.37890625, 15)"><circle class="state-start" r="7" width="14" height="14"/></g><g class="node  statediagram-state" id="state-PENDING-2" transform="translate(260.37890625, 113.75)"><rect class="basic label-container" style="" rx="5" ry="5" x="-42.171875" y="-19.25" width="84.34375" height="38.5"/><g class="label" style="" transform="translate(-34.171875, -11.25)"><rect/><foreignObject width="68.34375" height="22.5"><div xmlns="http://www.w3.org/1999/xhtml" style="display: table-cell; white-space: nowrap; line-height: 1.5; max-width: 200px; text-align: center;"><span class="nodeLabel"><p>PENDING</p></span></div></foreignObject></g></g><g class="node  statediagram-state" id="state-ACCEPTED-4" transform="translate(207.9921875, 224.75)"><rect class="basic label-container" style="" rx="5" ry="5" x="-48.84375" y="-19.25" width="97.6875" height="38.5"/><g class="label" style="" transform="translate(-40.84375, -11.25)"><rect/><foreignObject width="81.6875" height="22.5"><div xmlns="http://www.w3.org/1999/xhtml" style="display: table-cell; white-space: nowrap; line-height: 1.5; max-width: 200px; text-align: center;"><span class="nodeLabel"><p>ACCEPTED</p></span></div></foreignObject></g></g><g class="node  statediagram-state" id="state-CANCELLED-8" transform="translate(320.33984375, 446.75)"><rect class="basic label-container" style="" rx="5" ry="5" x="-53.015625" y="-19.25" width="106.03125" height="38.5"/><g class="label" style="" transform="translate(-45.015625, -11.25)"><rect/><foreignObject width="90.03125" height="22.5"><div xmlns="http://www.w3.org/1999/xhtml" style="display: table-cell; white-space: nowrap; line-height: 1.5; max-width: 200px; text-align: center;"><span class="nodeLabel"><p>CANCELLED</p></span></div></foreignObject></g></g><g class="node  statediagram-state" id="state-IN_PROGRESS-6" transform="translate(131.046875, 335.75)"><rect class="basic label-container" style="" rx="5" ry="5" x="-62.1875" y="-19.25" width="124.375" height="38.5"/><g class="label" style="" transform="translate(-54.1875, -11.25)"><rect/><foreignObject width="108.375" height="22.5"><div xmlns="http://www.w3.org/1999/xhtml" style="display: table-cell; white-space: nowrap; line-height: 1.5; max-width: 200px; text-align: center;"><span class="nodeLabel"><p>IN_PROGRESS</p></span></div></foreignObject></g></g><g class="node  statediagram-state" id="state-COMPLETED-7" transform="translate(62.6796875, 446.75)"><rect class="basic label-container" style="" rx="5" ry="5" x="-54.6796875" y="-19.25" width="109.359375" height="38.5"/><g class="label" style="" transform="translate(-46.6796875, -11.25)"><rect/><foreignObject width="93.359375" height="22.5"><div xmlns="http://www.w3.org/1999/xhtml" style="display: table-cell; white-space: nowrap; line-height: 1.5; max-width: 200px; text-align: center;"><span class="nodeLabel"><p>COMPLETED</p></span></div></foreignObject></g></g><g class="node default" id="state-root_end-8" transform="translate(207.9921875, 523)"><g><path d="M7 0 C7 0.40517908122283747, 6.964012880168563 0.816513743121899, 6.893654271085456 1.2155372436685123 C6.823295662002349 1.6145607442151257, 6.716427752933756 2.013397210557766, 6.5778483455013586 2.394141003279681 C6.439268938068961 2.7748847960015954, 6.26476736710249 3.149104622578984, 6.062177826491071 3.4999999999999996 C5.859588285879653 3.8508953774210153, 5.622755194947063 4.189128084166967, 5.362311101832846 4.499513267805774 C5.10186700871863 4.809898451444582, 4.809898451444583 5.10186700871863, 4.499513267805775 5.362311101832846 C4.189128084166968 5.622755194947063, 3.8508953774210166 5.859588285879652, 3.500000000000001 6.06217782649107 C3.149104622578985 6.264767367102489, 2.7748847960015963 6.439268938068961, 2.3941410032796817 6.5778483455013586 C2.013397210557767 6.716427752933756, 1.6145607442151264 6.823295662002349, 1.2155372436685128 6.893654271085456 C0.8165137431218992 6.964012880168563, 0.4051790812228379 7, 4.286263797015736e-16 7 C-0.405179081222837 7, -0.8165137431218985 6.964012880168563, -1.2155372436685121 6.893654271085456 C-1.6145607442151257 6.823295662002349, -2.0133972105577667 6.716427752933756, -2.394141003279681 6.5778483455013586 C-2.774884796001595 6.439268938068961, -3.149104622578983 6.26476736710249, -3.4999999999999982 6.062177826491071 C-3.8508953774210135 5.859588285879653, -4.189128084166966 5.6227551949470636, -4.499513267805773 5.362311101832848 C-4.809898451444581 5.101867008718632, -5.101867008718628 4.809898451444586, -5.3623111018328435 4.499513267805779 C-5.622755194947059 4.189128084166971, -5.859588285879649 3.8508953774210206, -6.062177826491068 3.5000000000000053 C-6.264767367102486 3.14910462257899, -6.439268938068958 2.774884796001602, -6.577848345501356 2.394141003279688 C-6.716427752933754 2.0133972105577738, -6.823295662002347 1.614560744215134, -6.893654271085454 1.215537243668521 C-6.9640128801685615 0.816513743121908, -6.999999999999999 0.4051790812228472, -7 1.0183126166254463e-14 C-7.000000000000001 -0.40517908122282686, -6.964012880168565 -0.8165137431218878, -6.893654271085459 -1.215537243668501 C-6.823295662002352 -1.6145607442151142, -6.716427752933759 -2.0133972105577542, -6.577848345501363 -2.394141003279669 C-6.439268938068967 -2.7748847960015834, -6.264767367102496 -3.149104622578972, -6.062177826491078 -3.4999999999999876 C-5.859588285879661 -3.8508953774210033, -5.6227551949470715 -4.1891280841669545, -5.362311101832856 -4.499513267805763 C-5.10186700871864 -4.809898451444571, -4.809898451444594 -5.10186700871862, -4.499513267805787 -5.362311101832836 C-4.189128084166979 -5.622755194947053, -3.850895377421028 -5.859588285879643, -3.5000000000000133 -6.062177826491062 C-3.1491046225789985 -6.264767367102482, -2.774884796001611 -6.439268938068954, -2.3941410032796973 -6.577848345501353 C-2.0133972105577835 -6.716427752933752, -1.6145607442151435 -6.823295662002345, -1.2155372436685306 -6.893654271085453 C-0.8165137431219176 -6.9640128801685615, -0.40517908122285695 -6.999999999999999, -1.9937625952807352e-14 -7 C0.4051790812228171 -7.000000000000001, 0.8165137431218781 -6.964012880168565, 1.2155372436684913 -6.89365427108546 C1.6145607442151044 -6.823295662002354, 2.013397210557745 -6.716427752933763, 2.3941410032796595 -6.5778483455013665 C2.774884796001574 -6.43926893806897, 3.149104622578963 -6.2647673671025, 3.499999999999979 -6.062177826491083 C3.8508953774209953 -5.859588285879665, 4.189128084166947 -5.622755194947077, 4.499513267805756 -5.362311101832862 C4.809898451444564 -5.1018670087186475, 5.101867008718613 -4.809898451444602, 5.362311101832829 -4.499513267805796 C5.622755194947046 -4.189128084166989, 5.859588285879637 -3.8508953774210393, 6.062177826491056 -3.500000000000025 C6.2647673671024755 -3.1491046225790105, 6.439268938068949 -2.774884796001623, 6.577848345501348 -2.3941410032797092 C6.716427752933747 -2.0133972105577955, 6.823295662002342 -1.6145607442151562, 6.893654271085451 -1.2155372436685434 C6.96401288016856 -0.8165137431219307, 6.982275711847575 -0.2025895406114567, 7 -3.2800750208310675e-14 C7.017724288152425 0.2025895406113911, 7.017724288152424 -0.2025895406114242, 7 0" stroke="none" stroke-width="0" fill="#ffffff" style=""/><path d="M7 0 C7 0.40517908122283747, 6.964012880168563 0.816513743121899, 6.893654271085456 1.2155372436685123 C6.823295662002349 1.6145607442151257, 6.716427752933756 2.013397210557766, 6.5778483455013586 2.394141003279681 C6.439268938068961 2.7748847960015954, 6.26476736710249 3.149104622578984, 6.062177826491071 3.4999999999999996 C5.859588285879653 3.8508953774210153, 5.622755194947063 4.189128084166967, 5.362311101832846 4.499513267805774 C5.10186700871863 4.809898451444582, 4.809898451444583 5.10186700871863, 4.499513267805775 5.362311101832846 C4.189128084166968 5.622755194947063, 3.8508953774210166 5.859588285879652, 3.500000000000001 6.06217782649107 C3.149104622578985 6.264767367102489, 2.7748847960015963 6.439268938068961, 2.3941410032796817 6.5778483455013586 C2.013397210557767 6.716427752933756, 1.6145607442151264 6.823295662002349, 1.2155372436685128 6.893654271085456 C0.8165137431218992 6.964012880168563, 0.4051790812228379 7, 4.286263797015736e-16 7 C-0.405179081222837 7, -0.8165137431218985 6.964012880168563, -1.2155372436685121 6.893654271085456 C-1.6145607442151257 6.823295662002349, -2.0133972105577667 6.716427752933756, -2.394141003279681 6.5778483455013586 C-2.774884796001595 6.439268938068961, -3.149104622578983 6.26476736710249, -3.4999999999999982 6.062177826491071 C-3.8508953774210135 5.859588285879653, -4.189128084166966 5.6227551949470636, -4.499513267805773 5.362311101832848 C-4.809898451444581 5.101867008718632, -5.101867008718628 4.809898451444586, -5.3623111018328435 4.499513267805779 C-5.622755194947059 4.189128084166971, -5.859588285879649 3.8508953774210206, -6.062177826491068 3.5000000000000053 C-6.264767367102486 3.14910462257899, -6.439268938068958 2.774884796001602, -6.577848345501356 2.394141003279688 C-6.716427752933754 2.0133972105577738, -6.823295662002347 1.614560744215134, -6.893654271085454 1.215537243668521 C-6.9640128801685615 0.816513743121908, -6.999999999999999 0.4051790812228472, -7 1.0183126166254463e-14 C-7.000000000000001 -0.40517908122282686, -6.964012880168565 -0.8165137431218878, -6.893654271085459 -1.215537243668501 C-6.823295662002352 -1.6145607442151142, -6.716427752933759 -2.0133972105577542, -6.577848345501363 -2.394141003279669 C-6.439268938068967 -2.7748847960015834, -6.264767367102496 -3.149104622578972, -6.062177826491078 -3.4999999999999876 C-5.859588285879661 -3.8508953774210033, -5.6227551949470715 -4.1891280841669545, -5.362311101832856 -4.499513267805763 C-5.10186700871864 -4.809898451444571, -4.809898451444594 -5.10186700871862, -4.499513267805787 -5.362311101832836 C-4.189128084166979 -5.622755194947053, -3.850895377421028 -5.859588285879643, -3.5000000000000133 -6.062177826491062 C-3.1491046225789985 -6.264767367102482, -2.774884796001611 -6.439268938068954, -2.3941410032796973 -6.577848345501353 C-2.0133972105577835 -6.716427752933752, -1.6145607442151435 -6.823295662002345, -1.2155372436685306 -6.893654271085453 C-0.8165137431219176 -6.9640128801685615, -0.40517908122285695 -6.999999999999999, -1.9937625952807352e-14 -7 C0.4051790812228171 -7.000000000000001, 0.8165137431218781 -6.964012880168565, 1.2155372436684913 -6.89365427108546 C1.6145607442151044 -6.823295662002354, 2.013397210557745 -6.716427752933763, 2.3941410032796595 -6.5778483455013665 C2.774884796001574 -6.43926893806897, 3.149104622578963 -6.2647673671025, 3.499999999999979 -6.062177826491083 C3.8508953774209953 -5.859588285879665, 4.189128084166947 -5.622755194947077, 4.499513267805756 -5.362311101832862 C4.809898451444564 -5.1018670087186475, 5.101867008718613 -4.809898451444602, 5.362311101832829 -4.499513267805796 C5.622755194947046 -4.189128084166989, 5.859588285879637 -3.8508953774210393, 6.062177826491056 -3.500000000000025 C6.2647673671024755 -3.1491046225790105, 6.439268938068949 -2.774884796001623, 6.577848345501348 -2.3941410032797092 C6.716427752933747 -2.0133972105577955, 6.823295662002342 -1.6145607442151562, 6.893654271085451 -1.2155372436685434 C6.96401288016856 -0.8165137431219307, 6.982275711847575 -0.2025895406114567, 7 -3.2800750208310675e-14 C7.017724288152425 0.2025895406113911, 7.017724288152424 -0.2025895406114242, 7 0" stroke="#374151" stroke-width="2" fill="none" stroke-dasharray="0 0" style=""/><g><path d="M2.5 0 C2.5 0.14470681472244193, 2.487147457203058 0.29161205111496386, 2.46201938253052 0.4341204441673258 C2.436891307857982 0.5766288372196877, 2.3987241974763416 0.7190704323420595, 2.3492315519647713 0.8550503583141718 C2.299738906453201 0.991030284286284, 2.2374169168223177 1.124680222349637, 2.165063509461097 1.2499999999999998 C2.092710102099876 1.3753197776503625, 2.0081268553382365 1.496117172916774, 1.915111107797445 1.6069690242163481 C1.8220953602566536 1.7178208755159223, 1.7178208755159226 1.8220953602566536, 1.6069690242163484 1.915111107797445 C1.4961171729167742 2.0081268553382365, 1.375319777650363 2.0927101020998755, 1.2500000000000002 2.1650635094610964 C1.1246802223496375 2.2374169168223172, 0.9910302842862845 2.2997389064532, 0.8550503583141721 2.349231551964771 C0.7190704323420597 2.3987241974763416, 0.576628837219688 2.436891307857982, 0.43412044416732604 2.46201938253052 C0.291612051114964 2.487147457203058, 0.14470681472244212 2.5, 1.5308084989341916e-16 2.5 C-0.1447068147224418 2.5, -0.2916120511149638 2.487147457203058, -0.43412044416732576 2.46201938253052 C-0.5766288372196877 2.436891307857982, -0.7190704323420595 2.3987241974763416, -0.8550503583141718 2.3492315519647713 C-0.991030284286284 2.299738906453201, -1.124680222349637 2.2374169168223177, -1.2499999999999996 2.165063509461097 C-1.375319777650362 2.092710102099876, -1.4961171729167733 2.008126855338237, -1.6069690242163475 1.9151111077974459 C-1.7178208755159217 1.8220953602566548, -1.822095360256653 1.7178208755159234, -1.9151111077974443 1.6069690242163495 C-2.0081268553382357 1.4961171729167755, -2.0927101020998746 1.3753197776503645, -2.1650635094610955 1.250000000000002 C-2.2374169168223164 1.1246802223496395, -2.2997389064531992 0.9910302842862865, -2.34923155196477 0.8550503583141743 C-2.3987241974763407 0.7190704323420621, -2.436891307857981 0.5766288372196907, -2.4620193825305194 0.434120444167329 C-2.487147457203058 0.29161205111496724, -2.5 0.14470681472244545, -2.5 3.636830773662308e-15 C-2.5 -0.14470681472243818, -2.4871474572030587 -0.2916120511149599, -2.4620193825305208 -0.4341204441673218 C-2.436891307857983 -0.5766288372196837, -2.398724197476343 -0.7190704323420553, -2.3492315519647726 -0.8550503583141675 C-2.2997389064532023 -0.9910302842862798, -2.23741691682232 -1.1246802223496328, -2.165063509461099 -1.2499999999999956 C-2.092710102099878 -1.3753197776503583, -2.00812685533824 -1.4961171729167695, -1.9151111077974488 -1.606969024216344 C-1.8220953602566576 -1.7178208755159183, -1.7178208755159263 -1.82209536025665, -1.6069690242163523 -1.9151111077974416 C-1.4961171729167784 -2.0081268553382334, -1.3753197776503672 -2.0927101020998724, -1.2500000000000047 -2.1650635094610937 C-1.1246802223496422 -2.237416916822315, -0.9910302842862897 -2.299738906453198, -0.8550503583141776 -2.3492315519647686 C-0.7190704323420656 -2.3987241974763394, -0.5766288372196942 -2.4368913078579806, -0.43412044416733236 -2.462019382530519 C-0.29161205111497057 -2.4871474572030574, -0.1447068147224489 -2.4999999999999996, -7.120580697431198e-15 -2.5 C0.14470681472243463 -2.5000000000000004, 0.29161205111495647 -2.487147457203059, 0.4341204441673183 -2.4620193825305217 C0.5766288372196802 -2.436891307857984, 0.7190704323420518 -2.3987241974763442, 0.8550503583141642 -2.349231551964774 C0.9910302842862766 -2.2997389064532037, 1.1246802223496295 -2.2374169168223212, 1.2499999999999925 -2.165063509461101 C1.3753197776503554 -2.0927101020998804, 1.4961171729167668 -2.008126855338242, 1.6069690242163412 -1.915111107797451 C1.7178208755159157 -1.82209536025666, 1.8220953602566472 -1.7178208755159294, 1.915111107797439 -1.6069690242163557 C2.0081268553382308 -1.496117172916782, 2.09271010209987 -1.3753197776503712, 2.1650635094610915 -1.2500000000000089 C2.237416916822313 -1.1246802223496466, 2.299738906453196 -0.9910302842862939, 2.3492315519647673 -0.855050358314182 C2.3987241974763385 -0.71907043234207, 2.4368913078579792 -0.5766288372196986, 2.462019382530518 -0.4341204441673369 C2.487147457203057 -0.29161205111497523, 2.4936698970884197 -0.07235340736123454, 2.5 -1.1714553645825241e-14 C2.5063301029115803 0.07235340736121111, 2.50633010291158 -0.07235340736122292, 2.5 0" stroke="none" stroke-width="0" fill="#64748b" style=""/><path d="M2.5 0 C2.5 0.14470681472244193, 2.487147457203058 0.29161205111496386, 2.46201938253052 0.4341204441673258 C2.436891307857982 0.5766288372196877, 2.3987241974763416 0.7190704323420595, 2.3492315519647713 0.8550503583141718 C2.299738906453201 0.991030284286284, 2.2374169168223177 1.124680222349637, 2.165063509461097 1.2499999999999998 C2.092710102099876 1.3753197776503625, 2.0081268553382365 1.496117172916774, 1.915111107797445 1.6069690242163481 C1.8220953602566536 1.7178208755159223, 1.7178208755159226 1.8220953602566536, 1.6069690242163484 1.915111107797445 C1.4961171729167742 2.0081268553382365, 1.375319777650363 2.0927101020998755, 1.2500000000000002 2.1650635094610964 C1.1246802223496375 2.2374169168223172, 0.9910302842862845 2.2997389064532, 0.8550503583141721 2.349231551964771 C0.7190704323420597 2.3987241974763416, 0.576628837219688 2.436891307857982, 0.43412044416732604 2.46201938253052 C0.291612051114964 2.487147457203058, 0.14470681472244212 2.5, 1.5308084989341916e-16 2.5 C-0.1447068147224418 2.5, -0.2916120511149638 2.487147457203058, -0.43412044416732576 2.46201938253052 C-0.5766288372196877 2.436891307857982, -0.7190704323420595 2.3987241974763416, -0.8550503583141718 2.3492315519647713 C-0.991030284286284 2.299738906453201, -1.124680222349637 2.2374169168223177, -1.2499999999999996 2.165063509461097 C-1.375319777650362 2.092710102099876, -1.4961171729167733 2.008126855338237, -1.6069690242163475 1.9151111077974459 C-1.7178208755159217 1.8220953602566548, -1.822095360256653 1.7178208755159234, -1.9151111077974443 1.6069690242163495 C-2.0081268553382357 1.4961171729167755, -2.0927101020998746 1.3753197776503645, -2.1650635094610955 1.250000000000002 C-2.2374169168223164 1.1246802223496395, -2.2997389064531992 0.9910302842862865, -2.34923155196477 0.8550503583141743 C-2.3987241974763407 0.7190704323420621, -2.436891307857981 0.5766288372196907, -2.4620193825305194 0.434120444167329 C-2.487147457203058 0.29161205111496724, -2.5 0.14470681472244545, -2.5 3.636830773662308e-15 C-2.5 -0.14470681472243818, -2.4871474572030587 -0.2916120511149599, -2.4620193825305208 -0.4341204441673218 C-2.436891307857983 -0.5766288372196837, -2.398724197476343 -0.7190704323420553, -2.3492315519647726 -0.8550503583141675 C-2.2997389064532023 -0.9910302842862798, -2.23741691682232 -1.1246802223496328, -2.165063509461099 -1.2499999999999956 C-2.092710102099878 -1.3753197776503583, -2.00812685533824 -1.4961171729167695, -1.9151111077974488 -1.606969024216344 C-1.8220953602566576 -1.7178208755159183, -1.7178208755159263 -1.82209536025665, -1.6069690242163523 -1.9151111077974416 C-1.4961171729167784 -2.0081268553382334, -1.3753197776503672 -2.0927101020998724, -1.2500000000000047 -2.1650635094610937 C-1.1246802223496422 -2.237416916822315, -0.9910302842862897 -2.299738906453198, -0.8550503583141776 -2.3492315519647686 C-0.7190704323420656 -2.3987241974763394, -0.5766288372196942 -2.4368913078579806, -0.43412044416733236 -2.462019382530519 C-0.29161205111497057 -2.4871474572030574, -0.1447068147224489 -2.4999999999999996, -7.120580697431198e-15 -2.5 C0.14470681472243463 -2.5000000000000004, 0.29161205111495647 -2.487147457203059, 0.4341204441673183 -2.4620193825305217 C0.5766288372196802 -2.436891307857984, 0.7190704323420518 -2.3987241974763442, 0.8550503583141642 -2.349231551964774 C0.9910302842862766 -2.2997389064532037, 1.1246802223496295 -2.2374169168223212, 1.2499999999999925 -2.165063509461101 C1.3753197776503554 -2.0927101020998804, 1.4961171729167668 -2.008126855338242, 1.6069690242163412 -1.915111107797451 C1.7178208755159157 -1.82209536025666, 1.8220953602566472 -1.7178208755159294, 1.915111107797439 -1.6069690242163557 C2.0081268553382308 -1.496117172916782, 2.09271010209987 -1.3753197776503712, 2.1650635094610915 -1.2500000000000089 C2.237416916822313 -1.1246802223496466, 2.299738906453196 -0.9910302842862939, 2.3492315519647673 -0.855050358314182 C2.3987241974763385 -0.71907043234207, 2.4368913078579792 -0.5766288372196986, 2.462019382530518 -0.4341204441673369 C2.487147457203057 -0.29161205111497523, 2.4936698970884197 -0.07235340736123454, 2.5 -1.1714553645825241e-14 C2.5063301029115803 0.07235340736121111, 2.50633010291158 -0.07235340736122292, 2.5 0" stroke="#64748b" stroke-width="2" fill="none" stroke-dasharray="0 0" style=""/></g></g></g></g></g></g></svg>