<svg id="my-svg" width="100%" xmlns="http://www.w3.org/2000/svg" xmlns:xlink="http://www.w3.org/1999/xlink" class="classDiagram" style="max-width: 1214.82px; background-color: white;" viewBox="0 0 1214.8203125 1080.5" role="graphics-document document" aria-roledescription="class"><style>#my-svg{font-family:Arial,Helvetica,sans-serif;font-size:15px;fill:#111111;}@keyframes edge-animation-frame{from{stroke-dashoffset:0;}}@keyframes dash{to{stroke-dashoffset:0;}}#my-svg .edge-animation-slow{stroke-dasharray:9,5!important;stroke-dashoffset:900;animation:dash 50s linear infinite;stroke-linecap:round;}#my-svg .edge-animation-fast{stroke-dasharray:9,5!important;stroke-dashoffset:900;animation:dash 20s linear infinite;stroke-linecap:round;}#my-svg .error-icon{fill:#fef3c7;}#my-svg .error-text{fill:#111111;stroke:#111111;}#my-svg .edge-thickness-normal{stroke-width:1px;}#my-svg .edge-thickness-thick{stroke-width:3.5px;}#my-svg .edge-pattern-solid{stroke-dasharray:0;}#my-svg .edge-thickness-invisible{stroke-width:0;fill:none;}#my-svg .edge-pattern-dashed{stroke-dasharray:3;}#my-svg .edge-pattern-dotted{stroke-dasharray:2;}#my-svg .marker{fill:#374151;stroke:#374151;}#my-svg .marker.cross{stroke:#374151;}#my-svg svg{font-family:Arial,Helvetica,sans-serif;font-size:15px;}#my-svg p{margin:0;}#my-svg g.classGroup text{fill:#64748b;stroke:none;font-family:Arial,Helvetica,sans-serif;font-size:10px;}#my-svg g.classGroup text .title{font-weight:bolder;}#my-svg .cluster-label text{fill:#111111;}#my-svg .cluster-label span{color:#111111;}#my-svg .cluster-label span p{background-color:transparent;}#my-svg .cluster rect{fill:#f8fafc;stroke:#94a3b8;stroke-width:1px;}#my-svg .cluster text{fill:#111111;}#my-svg .cluster span{color:#111111;}#my-svg .nodeLabel,#my-svg .edgeLabel{color:#111111;}#my-svg .edgeLabel .label rect{fill:#ffffff;}#my-svg .label text{fill:#111111;}#my-svg .labelBkg{background:#ffffff;}#my-svg .edgeLabel .label span{background:#ffffff;}#my-svg .classTitle{font-weight:bolder;}#my-svg .node rect,#my-svg .node circle,#my-svg .node ellipse,#my-svg .node polygon,#my-svg .node path{fill:#ffffff;stroke:#64748b;stroke-width:1px;}#my-svg .divider{stroke:#64748b;stroke-width:1;}#my-svg g.clickable{cursor:pointer;}#my-svg g.classGroup rect{fill:#ffffff;stroke:#64748b;}#my-svg g.classGroup line{stroke:#64748b;stroke-width:1;}#my-svg .classLabel .box{stroke:none;stroke-width:0;fill:#ffffff;opacity:0.5;}#my-svg .classLabel .label{fill:#64748b;font-size:10px;}#my-svg .relation{stroke:#374151;stroke-width:1;fill:none;}#my-svg .dashed-line{stroke-dasharray:3;}#my-svg .dotted-line{stroke-dasharray:1 2;}#my-svg #compositionStart,#my-svg .composition{fill:#374151!important;stroke:#374151!important;stroke-width:1;}#my-svg #compositionEnd,#my-svg .composition{fill:#374151!important;stroke:#374151!important;stroke-width:1;}#my-svg #dependencyStart,#my-svg .dependency{fill:#374151!important;stroke:#374151!important;stroke-width:1;}#my-svg #dependencyStart,#my-svg .dependency{fill:#374151!important;stroke:#374151!important;stroke-width:1;}#my-svg #extensionStart,#my-svg .extension{fill:transparent!important;stroke:#374151!important;stroke-width:1;}#my-svg #extensionEnd,#my-svg .extension{fill:transparent!important;stroke:#374151!important;stroke-width:1;}#my-svg #aggregationStart,#my-svg .aggregation{fill:transparent!important;stroke:#374151!important;stroke-width:1;}#my-svg #aggregationEnd,#my-svg .aggregation{fill:transparent!important;stroke:#374151!important;stroke-width:1;}#my-svg #lollipopStart,#my-svg .lollipop{fill:#ffffff!important;stroke:#374151!important;stroke-width:1;}#my-svg #lollipopEnd,#my-svg .lollipop{fill:#ffffff!important;stroke:#374151!important;stroke-width:1;}#my-svg .edgeTerminals{font-size:11px;line-height:initial;}#my-svg .classTitleText{text-anchor:middle;font-size:18px;fill:#111111;}#my-svg .label-icon{display:inline-block;height:1em;overflow:visible;vertical-align:-0.125em;}#my-svg .node .label-icon path{fill:currentColor;stroke:revert;stroke-width:revert;}#my-svg :root{--mermaid-font-family:"trebuchet ms",verdana,arial,sans-serif;}</style><g><defs><marker id="my-svg_class-aggregationStart" class="marker aggregation class" refX="18" refY="7" markerWidth="190" markerHeight="240" orient="auto"><path d="M 18,7 L9,13 L1,7 L9,1 Z"/></marker></defs><defs><marker id="my-svg_class-aggregationEnd" class="marker aggregation class" refX="1" refY="7" markerWidth="20" markerHeight="28" orient="auto"><path d="M 18,7 L9,13 L1,7 L9,1 Z"/></marker></defs><defs><marker id="my-svg_class-extensionStart" class="marker extension class" refX="18" refY="7" markerWidth="190" markerHeight="240" orient="auto"><path d="M 1,7 L18,13 V 1 Z"/></marker></defs><defs><marker id="my-svg_class-extensionEnd" class="marker extension class" refX="1" refY="7" markerWidth="20" markerHeight="28" orient="auto"><path d="M 1,1 V 13 L18,7 Z"/></marker></defs><defs><marker id="my-svg_class-compositionStart" class="marker composition class" refX="18" refY="7" markerWidth="190" markerHeight="240" orient="auto"><path d="M 18,7 L9,13 L1,7 L9,1 Z"/></marker></defs><defs><marker id="my-svg_class-compositionEnd" class="marker composition class" refX="1" refY="7" markerWidth="20" markerHeight="28" orient="auto"><path d="M 18,7 L9,13 L1,7 L9,1 Z"/></marker></defs><defs><marker id="my-svg_class-dependencyStart" class="marker dependency class" refX="6" refY="7" markerWidth="190" markerHeight="240" orient="auto"><path d="M 5,7 L9,13 L1,7 L9,1 Z"/></marker></defs><defs><marker id="my-svg_class-dependencyEnd" class="marker dependency class" refX="13" refY="7" markerWidth="20" markerHeight="28" orient="auto"><path d="M 18,7 L9,13 L14,7 L9,1 Z"/></marker></defs><defs><marker id="my-svg_class-lollipopStart" class="marker lollipop class" refX="13" refY="7" markerWidth="190" markerHeight="240" orient="auto"><circle fill="transparent" cx="7" cy="7" r="6"/></marker></defs><defs><marker id="my-svg_class-lollipopEnd" class="marker lollipop class" refX="1" refY="7" markerWidth="190" markerHeight="240" orient="auto"><circle fill="transparent" cx="7" cy="7" r="6"/></marker></defs><g class="root"><g class="clusters"/><g class="edgePaths"><path d="M226.693,341.372L202.027,358.227C177.362,375.082,128.031,408.791,103.365,441.062C78.699,473.333,78.699,504.167,78.699,519.583L78.699,535" id="id_Payment_PaymentMethod_1" class="edge-thickness-normal edge-pattern-solid relation" style=";;;" data-edge="true" data-et="edge" data-id="id_Payment_PaymentMethod_1" data-points="W3sieCI6MjQwLjkzNTU0Njg3NSwieSI6MzMxLjY0MDE4OTc3OTY2NTA0fSx7IngiOjc4LjY5OTIxODc1LCJ5Ijo0NDIuNX0seyJ4Ijo3OC42OTkyMTg3NSwieSI6NTM1fV0=" marker-start="url(#my-svg_class-compositionStart)"/><path d="M290.808,432.52L289.869,434.183C288.929,435.847,287.051,439.173,286.111,458.128C285.172,477.083,285.172,511.667,285.172,528.958L285.172,546.25" id="id_Payment_PaymentStatus_2" class="edge-thickness-normal edge-pattern-solid relation" style=";;;" data-edge="true" data-et="edge" data-id="id_Payment_PaymentStatus_2" data-points="W3sieCI6Mjk5LjI5MDY5NDcwODkyMjczLCJ5Ijo0MTcuNX0seyJ4IjoyODUuMTcxODc1LCJ5Ijo0NDIuNX0seyJ4IjoyODUuMTcxODc1LCJ5Ijo1NDYuMjV9XQ==" marker-start="url(#my-svg_class-compositionStart)"/><path d="M530.557,417.5L532.91,421.667C535.263,425.833,539.97,434.167,542.323,442.5C544.676,450.833,544.676,459.167,544.676,463.333L544.676,467.5" id="id_Payment_DriverEarnings_3" class="edge-thickness-normal edge-pattern-solid relation" style=";;;" data-edge="true" data-et="edge" data-id="id_Payment_DriverEarnings_3" data-points="W3sieCI6NTMwLjU1Njk2MTU0MTA3NzMsInkiOjQxNy41fSx7IngiOjU0NC42NzU3ODEyNSwieSI6NDQyLjV9LHsieCI6NTQ0LjY3NTc4MTI1LCJ5Ijo0NjcuNX1d"/><path d="M893.456,759.598L883.236,775.832C873.016,792.065,852.575,824.533,842.355,844.933C832.135,865.333,832.135,873.667,832.135,877.833L832.135,882" id="id_GatewayService_MomoGateway_4" class="edge-thickness-normal edge-pattern-dashed relation" style=";;;" data-edge="true" data-et="edge" data-id="id_GatewayService_MomoGateway_4" data-points="W3sieCI6OTAyLjY0NjY3NzU2NzA5ODksInkiOjc0NX0seyJ4Ijo4MzIuMTM0NzY1NjI1LCJ5Ijo4NTd9LHsieCI6ODMyLjEzNDc2NTYyNSwieSI6ODgyfV0=" marker-start="url(#my-svg_class-extensionStart)"/><path d="M1031.77,759.598L1041.991,775.832C1052.211,792.065,1072.651,824.533,1082.872,844.933C1093.092,865.333,1093.092,873.667,1093.092,877.833L1093.092,882" id="id_GatewayService_VnpayGateway_5" class="edge-thickness-normal edge-pattern-dashed relation" style=";;;" data-edge="true" data-et="edge" data-id="id_GatewayService_VnpayGateway_5" data-points="W3sieCI6MTAyMi41Nzk4ODQ5MzI5MDExLCJ5Ijo3NDV9LHsieCI6MTA5My4wOTE3OTY4NzUsInkiOjg1N30seyJ4IjoxMDkzLjA5MTc5Njg3NSwieSI6ODgyfV0=" marker-start="url(#my-svg_class-extensionStart)"/><path d="M588.912,285.736L651.196,311.864C713.479,337.991,838.046,390.245,900.33,434.039C962.613,477.833,962.613,513.167,962.613,530.833L962.613,548.5" id="id_Payment_GatewayService_6" class="edge-thickness-normal edge-pattern-dashed relation" style=";;;" data-edge="true" data-et="edge" data-id="id_Payment_GatewayService_6" data-points="W3sieCI6NTg4LjkxMjEwOTM3NSwieSI6Mjg1LjczNjI2NTA5ODA1MDR9LHsieCI6OTYyLjYxMzI4MTI1LCJ5Ijo0NDIuNX0seyJ4Ijo5NjIuNjEzMjgxMjUsInkiOjU1NC41fV0=" marker-end="url(#my-svg_class-dependencyEnd)"/></g><g class="edgeLabels"><g class="edgeLabel"><g class="label" data-id="id_Payment_PaymentMethod_1" transform="translate(0, 0)"><foreignObject width="0" height="0"><div xmlns="http://www.w3.org/1999/xhtml" class="labelBkg" style="display: table-cell; white-space: nowrap; line-height: 1.5; max-width: 200px; text-align: center;"><span class="edgeLabel"></span></div></foreignObject></g></g><g class="edgeLabel"><g class="label" data-id="id_Payment_PaymentStatus_2" transform="translate(0, 0)"><foreignObject width="0" height="0"><div xmlns="http://www.w3.org/1999/xhtml" class="labelBkg" style="display: table-cell; white-space: nowrap; line-height: 1.5; max-width: 200px; text-align: center;"><span class="edgeLabel"></span></div></foreignObject></g></g><g class="edgeLabel"><g class="label" data-id="id_Payment_DriverEarnings_3" transform="translate(0, 0)"><foreignObject width="0" height="0"><div xmlns="http://www.w3.org/1999/xhtml" class="labelBkg" style="display: table-cell; white-space: nowrap; line-height: 1.5; max-width: 200px; text-align: center;"><span class="edgeLabel"></span></div></foreignObject></g></g><g class="edgeLabel"><g class="label" data-id="id_GatewayService_MomoGateway_4" transform="translate(0, 0)"><foreignObject width="0" height="0"><div xmlns="http://www.w3.org/1999/xhtml" class="labelBkg" style="display: table-cell; white-space: nowrap; line-height: 1.5; max-width: 200px; text-align: center;"><span class="edgeLabel"></span></div></foreignObject></g></g><g class="edgeLabel"><g class="label" data-id="id_GatewayService_VnpayGateway_5" transform="translate(0, 0)"><foreignObject width="0" height="0"><div xmlns="http://www.w3.org/1999/xhtml" class="labelBkg" style="display: table-cell; white-space: nowrap; line-height: 1.5; max-width: 200px; text-align: center;"><span class="edgeLabel"></span></div></foreignObject></g></g><g class="edgeLabel"><g class="label" data-id="id_Payment_GatewayService_6" transform="translate(0, 0)"><foreignObject width="0" height="0"><div xmlns="http://www.w3.org/1999/xhtml" class="labelBkg" style="display: table-cell; white-space: nowrap; line-height: 1.5; max-width: 200px; text-align: center;"><span class="edgeLabel"></span></div></foreignObject></g></g><g class="edgeTerminals" transform="translate(218.0239253031271, 329.12868914977025)"><g class="inner" transform="translate(-3.0625, -8.25)"><foreignObject width="6.125" height="16.5" style="width: 9px; height: 12px;"><div xmlns="http://www.w3.org/1999/xhtml" style="display: table-cell; white-space: nowrap; line-height: 1.5;"><span class="edgeLabel"><p>1</p></span></div></foreignObject></g></g><g class="edgeTerminals" transform="translate(278.55883278364075, 426.97471714882636)"><g class="inner" transform="translate(-3.0625, -8.25)"><foreignObject width="6.125" height="16.5" style="width: 9px; height: 12px;"><div xmlns="http://www.w3.org/1999/xhtml" style="display: table-cell; white-space: nowrap; line-height: 1.5;"><span class="edgeLabel"><p>1</p></span></div></foreignObject></g></g><g class="edgeTerminals" transform="translate(523.9439201758097, 439.3139405820948)"><g class="inner" transform="translate(-3.0625, -8.25)"><foreignObject width="6.125" height="16.5" style="width: 9px; height: 12px;"><div xmlns="http://www.w3.org/1999/xhtml" style="display: table-cell; white-space: nowrap; line-height: 1.5;"><span class="edgeLabel"><p>1</p></span></div></foreignObject></g></g><g class="edgeTerminals" transform="translate(88.69921937499998, 512.5000005357143)"><g class="inner" transform="translate(-3.0625, -8.25)"/><foreignObject width="6.125" height="16.5" style="width: 9px; height: 12px;"><div xmlns="http://www.w3.org/1999/xhtml" style="display: table-cell; white-space: nowrap; line-height: 1.5;"><span class="edgeLabel"><p>1</p></span></div></foreignObject></g><g class="edgeTerminals" transform="translate(295.1718774999998, 523.7500021428572)"><g class="inner" transform="translate(-3.0625, -8.25)"/><foreignObject width="6.125" height="16.5" style="width: 9px; height: 12px;"><div xmlns="http://www.w3.org/1999/xhtml" style="display: table-cell; white-space: nowrap; line-height: 1.5;"><span class="edgeLabel"><p>1</p></span></div></foreignObject></g><g class="edgeTerminals" transform="translate(552.059903703693, 443.48091695644064)"><g class="inner" transform="translate(-3.0625, -8.25)"/><foreignObject width="6.125" height="16.5" style="width: 9px; height: 12px;"><div xmlns="http://www.w3.org/1999/xhtml" style="display: table-cell; white-space: nowrap; line-height: 1.5;"><span class="edgeLabel"><p>1</p></span></div></foreignObject></g></g><g class="nodes"><g class="node default" id="classId-Payment-0" transform="translate(414.923828125, 212.75)"><g class="basic label-container"><path d="M-173.98828125 -204.75 L173.98828125 -204.75 L173.98828125 204.75 L-173.98828125 204.75" stroke="none" stroke-width="0" fill="#ffffff" style=""/><path d="M-173.98828125 -204.75 C-95.3676601819103 -204.75, -16.74703911382059 -204.75, 173.98828125 -204.75 M-173.98828125 -204.75 C-77.36470429634811 -204.75, 19.258872657303783 -204.75, 173.98828125 -204.75 M173.98828125 -204.75 C173.98828125 -66.44381747214464, 173.98828125 71.86236505571071, 173.98828125 204.75 M173.98828125 -204.75 C173.98828125 -94.80022381436648, 173.98828125 15.149552371267049, 173.98828125 204.75 M173.98828125 204.75 C62.287047731497495 204.75, -49.41418578700501 204.75, -173.98828125 204.75 M173.98828125 204.75 C77.83537490361034 204.75, -18.317531442779313 204.75, -173.98828125 204.75 M-173.98828125 204.75 C-173.98828125 67.19347746001557, -173.98828125 -70.36304507996886, -173.98828125 -204.75 M-173.98828125 204.75 C-173.98828125 62.245140297574466, -173.98828125 -80.25971940485107, -173.98828125 -204.75" stroke="#64748b" stroke-width="1.3" fill="none" stroke-dasharray="0 0" style=""/></g><g class="annotation-group text" transform="translate(-60.8828125, -180.75)"><g class="label" style="" transform="translate(0,-11.25)"><foreignObject width="121.765625" height="22.5"><div xmlns="http://www.w3.org/1999/xhtml" style="display: table-cell; white-space: nowrap; line-height: 1.5; max-width: 168px; text-align: center;"><span class="nodeLabel markdown-node-label" style=""><p>«Aggregate Root»</p></span></div></foreignObject></g></g><g class="label-group text" transform="translate(-31.265625, -158.25)"><g class="label" style="font-weight: bolder" transform="translate(0,-11.25)"><foreignObject width="62.53125" height="22.5"><div xmlns="http://www.w3.org/1999/xhtml" style="display: table-cell; white-space: nowrap; line-height: 1.5; max-width: 108px; text-align: center;"><span class="nodeLabel markdown-node-label" style=""><p>Payment</p></span></div></foreignObject></g></g><g class="members-group text" transform="translate(-161.98828125, -111.75)"><g class="label" style="" transform="translate(0,-11.25)"><foreignObject width="96.3125" height="22.5"><div xmlns="http://www.w3.org/1999/xhtml" style="display: table-cell; white-space: nowrap; line-height: 1.5; max-width: 151px; text-align: center;"><span class="nodeLabel markdown-node-label" style=""><p>+PaymentId id</p></span></div></foreignObject></g><g class="label" style="" transform="translate(0,11.25)"><foreignObject width="93.8125" height="22.5"><div xmlns="http://www.w3.org/1999/xhtml" style="display: table-cell; white-space: nowrap; line-height: 1.5; max-width: 151px; text-align: center;"><span class="nodeLabel markdown-node-label" style=""><p>+RideId rideId</p></span></div></foreignObject></g><g class="label" style="" transform="translate(0,33.75)"><foreignObject width="164.65625" height="22.5"><div xmlns="http://www.w3.org/1999/xhtml" style="display: table-cell; white-space: nowrap; line-height: 1.5; max-width: 217px; text-align: center;"><span class="nodeLabel markdown-node-label" style=""><p>+CustomerId customerId</p></span></div></foreignObject></g><g class="label" style="" transform="translate(0,56.25)"><foreignObject width="115.453125" height="22.5"><div xmlns="http://www.w3.org/1999/xhtml" style="display: table-cell; white-space: nowrap; line-height: 1.5; max-width: 176px; text-align: center;"><span class="nodeLabel markdown-node-label" style=""><p>+DriverId driverId</p></span></div></foreignObject></g><g class="label" style="" transform="translate(0,78.75)"><foreignObject width="107.984375" height="22.5"><div xmlns="http://www.w3.org/1999/xhtml" style="display: table-cell; white-space: nowrap; line-height: 1.5; max-width: 162px; text-align: center;"><span class="nodeLabel markdown-node-label" style=""><p>+Money amount</p></span></div></foreignObject></g><g class="label" style="" transform="translate(0,101.25)"><foreignObject width="172.1875" height="22.5"><div xmlns="http://www.w3.org/1999/xhtml" style="display: table-cell; white-space: nowrap; line-height: 1.5; max-width: 223px; text-align: center;"><span class="nodeLabel markdown-node-label" style=""><p>+PaymentMethod method</p></span></div></foreignObject></g><g class="label" style="" transform="translate(0,123.75)"><foreignObject width="154.671875" height="22.5"><div xmlns="http://www.w3.org/1999/xhtml" style="display: table-cell; white-space: nowrap; line-height: 1.5; max-width: 200px; text-align: center;"><span class="nodeLabel markdown-node-label" style=""><p>+PaymentStatus status</p></span></div></foreignObject></g><g class="label" style="" transform="translate(0,146.25)"><foreignObject width="163.015625" height="22.5"><div xmlns="http://www.w3.org/1999/xhtml" style="display: table-cell; white-space: nowrap; line-height: 1.5; max-width: 218px; text-align: center;"><span class="nodeLabel markdown-node-label" style=""><p>+String idempotencyKey</p></span></div></foreignObject></g><g class="label" style="" transform="translate(0,168.75)"><foreignObject width="263.09375" height="22.5"><div xmlns="http://www.w3.org/1999/xhtml" style="display: table-cell; white-space: nowrap; line-height: 1.5; max-width: 301px; text-align: center;"><span class="nodeLabel markdown-node-label" style=""><p>+GatewayResponse gatewayResponse</p></span></div></foreignObject></g></g><g class="methods-group text" transform="translate(-161.98828125, 114.75)"><g class="label" style="" transform="translate(0,-11.25)"><foreignObject width="185.5" height="22.5"><div xmlns="http://www.w3.org/1999/xhtml" style="display: table-cell; white-space: nowrap; line-height: 1.5; max-width: 233px; text-align: center;"><span class="nodeLabel markdown-node-label" style=""><p>+process() : PaymentResult</p></span></div></foreignObject></g><g class="label" style="" transform="translate(0,11.25)"><foreignObject width="199.734375" height="22.5"><div xmlns="http://www.w3.org/1999/xhtml" style="display: table-cell; white-space: nowrap; line-height: 1.5; max-width: 254px; text-align: center;"><span class="nodeLabel markdown-node-label" style=""><p>+handleIpn(IpnPayload) : void</p></span></div></foreignObject></g><g class="label" style="" transform="translate(0,33.75)"><foreignObject width="147.171875" height="22.5"><div xmlns="http://www.w3.org/1999/xhtml" style="display: table-cell; white-space: nowrap; line-height: 1.5; max-width: 201px; text-align: center;"><span class="nodeLabel markdown-node-label" style=""><p>+refund(reason) : void</p></span></div></foreignObject></g><g class="label" style="" transform="translate(0,56.25)"><foreignObject width="169.6875" height="22.5"><div xmlns="http://www.w3.org/1999/xhtml" style="display: table-cell; white-space: nowrap; line-height: 1.5; max-width: 223px; text-align: center;"><span class="nodeLabel markdown-node-label" style=""><p>+isCompleted() : Boolean</p></span></div></foreignObject></g></g><g class="divider" style=""><path d="M-173.98828125 -135.75 C-75.83293850960405 -135.75, 22.322404230791904 -135.75, 173.98828125 -135.75 M-173.98828125 -135.75 C-87.37407920781021 -135.75, -0.7598771656204235 -135.75, 173.98828125 -135.75" stroke="#64748b" stroke-width="1.3" fill="none" stroke-dasharray="0 0" style=""/></g><g class="divider" style=""><path d="M-173.98828125 90.75 C-64.02948708918267 90.75, 45.92930707163467 90.75, 173.98828125 90.75 M-173.98828125 90.75 C-83.72123953431172 90.75, 6.545802181376558 90.75, 173.98828125 90.75" stroke="#64748b" stroke-width="1.3" fill="none" stroke-dasharray="0 0" style=""/></g></g><g class="node default" id="classId-PaymentMethod-1" transform="translate(78.69921875, 649.75)"><g class="basic label-container"><path d="M-70.69921875 -114.75 L70.69921875 -114.75 L70.69921875 114.75 L-70.69921875 114.75" stroke="none" stroke-width="0" fill="#ffffff" style=""/><path d="M-70.69921875 -114.75 C-19.95335989520167 -114.75, 30.792498959596657 -114.75, 70.69921875 -114.75 M-70.69921875 -114.75 C-25.91882764890405 -114.75, 18.861563452191902 -114.75, 70.69921875 -114.75 M70.69921875 -114.75 C70.69921875 -34.53586600913965, 70.69921875 45.678267981720694, 70.69921875 114.75 M70.69921875 -114.75 C70.69921875 -31.576761800785576, 70.69921875 51.59647639842885, 70.69921875 114.75 M70.69921875 114.75 C15.744782957409711 114.75, -39.20965283518058 114.75, -70.69921875 114.75 M70.69921875 114.75 C32.56720006952827 114.75, -5.564818610943462 114.75, -70.69921875 114.75 M-70.69921875 114.75 C-70.69921875 37.56124110768873, -70.69921875 -39.62751778462254, -70.69921875 -114.75 M-70.69921875 114.75 C-70.69921875 67.75826747220844, -70.69921875 20.766534944416875, -70.69921875 -114.75" stroke="#64748b" stroke-width="1.3" fill="none" stroke-dasharray="0 0" style=""/></g><g class="annotation-group text" transform="translate(-50.734375, -90.75)"><g class="label" style="" transform="translate(0,-11.25)"><foreignObject width="101.46875" height="22.5"><div xmlns="http://www.w3.org/1999/xhtml" style="display: table-cell; white-space: nowrap; line-height: 1.5; max-width: 149px; text-align: center;"><span class="nodeLabel markdown-node-label" style=""><p>«Value Object»</p></span></div></foreignObject></g></g><g class="label-group text" transform="translate(-57.9296875, -68.25)"><g class="label" style="font-weight: bolder" transform="translate(0,-11.25)"><foreignObject width="115.859375" height="22.5"><div xmlns="http://www.w3.org/1999/xhtml" style="display: table-cell; white-space: nowrap; line-height: 1.5; max-width: 158px; text-align: center;"><span class="nodeLabel markdown-node-label" style=""><p>PaymentMethod</p></span></div></foreignObject></g></g><g class="members-group text" transform="translate(-58.69921875, -21.75)"><g class="label" style="" transform="translate(0,-11.25)"><foreignObject width="41.6875" height="22.5"><div xmlns="http://www.w3.org/1999/xhtml" style="display: table-cell; white-space: nowrap; line-height: 1.5; max-width: 93px; text-align: center;"><span class="nodeLabel markdown-node-label" style=""><p>CASH</p></span></div></foreignObject></g><g class="label" style="" transform="translate(0,11.25)"><foreignObject width="48.328125" height="22.5"><div xmlns="http://www.w3.org/1999/xhtml" style="display: table-cell; white-space: nowrap; line-height: 1.5; max-width: 103px; text-align: center;"><span class="nodeLabel markdown-node-label" style=""><p>MOMO</p></span></div></foreignObject></g><g class="label" style="" transform="translate(0,33.75)"><foreignObject width="48.640625" height="22.5"><div xmlns="http://www.w3.org/1999/xhtml" style="display: table-cell; white-space: nowrap; line-height: 1.5; max-width: 104px; text-align: center;"><span class="nodeLabel markdown-node-label" style=""><p>VNPAY</p></span></div></foreignObject></g><g class="label" style="" transform="translate(0,56.25)"><foreignObject width="42.515625" height="22.5"><div xmlns="http://www.w3.org/1999/xhtml" style="display: table-cell; white-space: nowrap; line-height: 1.5; max-width: 95px; text-align: center;"><span class="nodeLabel markdown-node-label" style=""><p>CARD</p></span></div></foreignObject></g><g class="label" style="" transform="translate(0,78.75)"><foreignObject width="59.46875" height="22.5"><div xmlns="http://www.w3.org/1999/xhtml" style="display: table-cell; white-space: nowrap; line-height: 1.5; max-width: 114px; text-align: center;"><span class="nodeLabel markdown-node-label" style=""><p>WALLET</p></span></div></foreignObject></g></g><g class="methods-group text" transform="translate(-58.69921875, 114.75)"/><g class="divider" style=""><path d="M-70.69921875 -45.75 C-17.835338422018445 -45.75, 35.02854190596311 -45.75, 70.69921875 -45.75 M-70.69921875 -45.75 C-26.66466045960481 -45.75, 17.36989783079038 -45.75, 70.69921875 -45.75" stroke="#64748b" stroke-width="1.3" fill="none" stroke-dasharray="0 0" style=""/></g><g class="divider" style=""><path d="M-70.69921875 90.75 C-28.198596329082847 90.75, 14.302026091834307 90.75, 70.69921875 90.75 M-70.69921875 90.75 C-15.736495446992244 90.75, 39.22622785601551 90.75, 70.69921875 90.75" stroke="#64748b" stroke-width="1.3" fill="none" stroke-dasharray="0 0" style=""/></g></g><g class="node default" id="classId-PaymentStatus-2" transform="translate(285.171875, 649.75)"><g class="basic label-container"><path d="M-85.7734375 -103.5 L85.7734375 -103.5 L85.7734375 103.5 L-85.7734375 103.5" stroke="none" stroke-width="0" fill="#ffffff" style=""/><path d="M-85.7734375 -103.5 C-39.666209419204385 -103.5, 6.4410186615912295 -103.5, 85.7734375 -103.5 M-85.7734375 -103.5 C-31.431135716354362 -103.5, 22.911166067291276 -103.5, 85.7734375 -103.5 M85.7734375 -103.5 C85.7734375 -25.742895754651016, 85.7734375 52.01420849069797, 85.7734375 103.5 M85.7734375 -103.5 C85.7734375 -55.40789361559695, 85.7734375 -7.3157872311938945, 85.7734375 103.5 M85.7734375 103.5 C47.74358997973286 103.5, 9.71374245946572 103.5, -85.7734375 103.5 M85.7734375 103.5 C46.617007384791115 103.5, 7.460577269582231 103.5, -85.7734375 103.5 M-85.7734375 103.5 C-85.7734375 26.460752030718425, -85.7734375 -50.57849593856315, -85.7734375 -103.5 M-85.7734375 103.5 C-85.7734375 39.00801371621915, -85.7734375 -25.483972567561693, -85.7734375 -103.5" stroke="#64748b" stroke-width="1.3" fill="none" stroke-dasharray="0 0" style=""/></g><g class="annotation-group text" transform="translate(-50.734375, -79.5)"><g class="label" style="" transform="translate(0,-11.25)"><foreignObject width="101.46875" height="22.5"><div xmlns="http://www.w3.org/1999/xhtml" style="display: table-cell; white-space: nowrap; line-height: 1.5; max-width: 149px; text-align: center;"><span class="nodeLabel markdown-node-label" style=""><p>«Value Object»</p></span></div></foreignObject></g></g><g class="label-group text" transform="translate(-54.1875, -57)"><g class="label" style="font-weight: bolder" transform="translate(0,-11.25)"><foreignObject width="108.375" height="22.5"><div xmlns="http://www.w3.org/1999/xhtml" style="display: table-cell; white-space: nowrap; line-height: 1.5; max-width: 146px; text-align: center;"><span class="nodeLabel markdown-node-label" style=""><p>PaymentStatus</p></span></div></foreignObject></g></g><g class="members-group text" transform="translate(-73.7734375, -10.5)"><g class="label" style="" transform="translate(0,-11.25)"><foreignObject width="68.34375" height="22.5"><div xmlns="http://www.w3.org/1999/xhtml" style="display: table-cell; white-space: nowrap; line-height: 1.5; max-width: 122px; text-align: center;"><span class="nodeLabel markdown-node-label" style=""><p>PENDING</p></span></div></foreignObject></g><g class="label" style="" transform="translate(0,11.25)"><foreignObject width="93.359375" height="22.5"><div xmlns="http://www.w3.org/1999/xhtml" style="display: table-cell; white-space: nowrap; line-height: 1.5; max-width: 146px; text-align: center;"><span class="nodeLabel markdown-node-label" style=""><p>COMPLETED</p></span></div></foreignObject></g><g class="label" style="" transform="translate(0,33.75)"><foreignObject width="51.6875" height="22.5"><div xmlns="http://www.w3.org/1999/xhtml" style="display: table-cell; white-space: nowrap; line-height: 1.5; max-width: 107px; text-align: center;"><span class="nodeLabel markdown-node-label" style=""><p>FAILED</p></span></div></foreignObject></g><g class="label" style="" transform="translate(0,56.25)"><foreignObject width="83.34375" height="22.5"><div xmlns="http://www.w3.org/1999/xhtml" style="display: table-cell; white-space: nowrap; line-height: 1.5; max-width: 137px; text-align: center;"><span class="nodeLabel markdown-node-label" style=""><p>REFUNDED</p></span></div></foreignObject></g></g><g class="methods-group text" transform="translate(-73.7734375, 103.5)"/><g class="divider" style=""><path d="M-85.7734375 -34.5 C-20.728116298659245 -34.5, 44.31720490268151 -34.5, 85.7734375 -34.5 M-85.7734375 -34.5 C-40.09724717396366 -34.5, 5.578943152072682 -34.5, 85.7734375 -34.5" stroke="#64748b" stroke-width="1.3" fill="none" stroke-dasharray="0 0" style=""/></g><g class="divider" style=""><path d="M-85.7734375 79.5 C-40.4736238935705 79.5, 4.826189712859005 79.5, 85.7734375 79.5 M-85.7734375 79.5 C-45.24943021792676 79.5, -4.725422935853516 79.5, 85.7734375 79.5" stroke="#64748b" stroke-width="1.3" fill="none" stroke-dasharray="0 0" style=""/></g></g><g class="node default" id="classId-DriverEarnings-3" transform="translate(544.67578125, 649.75)"><g class="basic label-container"><path d="M-123.73046875 -182.25 L123.73046875 -182.25 L123.73046875 182.25 L-123.73046875 182.25" stroke="none" stroke-width="0" fill="#ffffff" style=""/><path d="M-123.73046875 -182.25 C-29.315242324282906 -182.25, 65.09998410143419 -182.25, 123.73046875 -182.25 M-123.73046875 -182.25 C-30.684885195749843 -182.25, 62.360698358500315 -182.25, 123.73046875 -182.25 M123.73046875 -182.25 C123.73046875 -54.963697928013886, 123.73046875 72.32260414397223, 123.73046875 182.25 M123.73046875 -182.25 C123.73046875 -103.27896010697663, 123.73046875 -24.307920213953253, 123.73046875 182.25 M123.73046875 182.25 C47.59263466842749 182.25, -28.545199413145014 182.25, -123.73046875 182.25 M123.73046875 182.25 C63.358660845950766 182.25, 2.9868529419015317 182.25, -123.73046875 182.25 M-123.73046875 182.25 C-123.73046875 45.56176019143939, -123.73046875 -91.12647961712122, -123.73046875 -182.25 M-123.73046875 182.25 C-123.73046875 92.46888638901245, -123.73046875 2.6877727780249074, -123.73046875 -182.25" stroke="#64748b" stroke-width="1.3" fill="none" stroke-dasharray="0 0" style=""/></g><g class="annotation-group text" transform="translate(-27.1015625, -158.25)"><g class="label" style="" transform="translate(0,-11.25)"><foreignObject width="54.203125" height="22.5"><div xmlns="http://www.w3.org/1999/xhtml" style="display: table-cell; white-space: nowrap; line-height: 1.5; max-width: 105px; text-align: center;"><span class="nodeLabel markdown-node-label" style=""><p>«Entity»</p></span></div></foreignObject></g></g><g class="label-group text" transform="translate(-53.7734375, -135.75)"><g class="label" style="font-weight: bolder" transform="translate(0,-11.25)"><foreignObject width="107.546875" height="22.5"><div xmlns="http://www.w3.org/1999/xhtml" style="display: table-cell; white-space: nowrap; line-height: 1.5; max-width: 150px; text-align: center;"><span class="nodeLabel markdown-node-label" style=""><p>DriverEarnings</p></span></div></foreignObject></g></g><g class="members-group text" transform="translate(-111.73046875, -89.25)"><g class="label" style="" transform="translate(0,-11.25)"><foreignObject width="96.328125" height="22.5"><div xmlns="http://www.w3.org/1999/xhtml" style="display: table-cell; white-space: nowrap; line-height: 1.5; max-width: 152px; text-align: center;"><span class="nodeLabel markdown-node-label" style=""><p>+EarningsId id</p></span></div></foreignObject></g><g class="label" style="" transform="translate(0,11.25)"><foreignObject width="93.8125" height="22.5"><div xmlns="http://www.w3.org/1999/xhtml" style="display: table-cell; white-space: nowrap; line-height: 1.5; max-width: 151px; text-align: center;"><span class="nodeLabel markdown-node-label" style=""><p>+RideId rideId</p></span></div></foreignObject></g><g class="label" style="" transform="translate(0,33.75)"><foreignObject width="115.453125" height="22.5"><div xmlns="http://www.w3.org/1999/xhtml" style="display: table-cell; white-space: nowrap; line-height: 1.5; max-width: 176px; text-align: center;"><span class="nodeLabel markdown-node-label" style=""><p>+DriverId driverId</p></span></div></foreignObject></g><g class="label" style="" transform="translate(0,56.25)"><foreignObject width="125.484375" height="22.5"><div xmlns="http://www.w3.org/1999/xhtml" style="display: table-cell; white-space: nowrap; line-height: 1.5; max-width: 176px; text-align: center;"><span class="nodeLabel markdown-node-label" style=""><p>+Money grossFare</p></span></div></foreignObject></g><g class="label" style="" transform="translate(0,78.75)"><foreignObject width="137.984375" height="22.5"><div xmlns="http://www.w3.org/1999/xhtml" style="display: table-cell; white-space: nowrap; line-height: 1.5; max-width: 192px; text-align: center;"><span class="nodeLabel markdown-node-label" style=""><p>+Money platformFee</p></span></div></foreignObject></g><g class="label" style="" transform="translate(0,101.25)"><foreignObject width="138.015625" height="22.5"><div xmlns="http://www.w3.org/1999/xhtml" style="display: table-cell; white-space: nowrap; line-height: 1.5; max-width: 190px; text-align: center;"><span class="nodeLabel markdown-node-label" style=""><p>+Money netEarnings</p></span></div></foreignObject></g><g class="label" style="" transform="translate(0,123.75)"><foreignObject width="157.15625" height="22.5"><div xmlns="http://www.w3.org/1999/xhtml" style="display: table-cell; white-space: nowrap; line-height: 1.5; max-width: 208px; text-align: center;"><span class="nodeLabel markdown-node-label" style=""><p>+Float commissionRate</p></span></div></foreignObject></g><g class="label" style="" transform="translate(0,146.25)"><foreignObject width="121.328125" height="22.5"><div xmlns="http://www.w3.org/1999/xhtml" style="display: table-cell; white-space: nowrap; line-height: 1.5; max-width: 174px; text-align: center;"><span class="nodeLabel markdown-node-label" style=""><p>+Money cashDebt</p></span></div></foreignObject></g><g class="label" style="" transform="translate(0,168.75)"><foreignObject width="168.03125" height="22.5"><div xmlns="http://www.w3.org/1999/xhtml" style="display: table-cell; white-space: nowrap; line-height: 1.5; max-width: 222px; text-align: center;"><span class="nodeLabel markdown-node-label" style=""><p>+Boolean driverCollected</p></span></div></foreignObject></g><g class="label" style="" transform="translate(0,191.25)"><foreignObject width="98.828125" height="22.5"><div xmlns="http://www.w3.org/1999/xhtml" style="display: table-cell; white-space: nowrap; line-height: 1.5; max-width: 152px; text-align: center;"><span class="nodeLabel markdown-node-label" style=""><p>+Money bonus</p></span></div></foreignObject></g><g class="label" style="" transform="translate(0,213.75)"><foreignObject width="169.6875" height="22.5"><div xmlns="http://www.w3.org/1999/xhtml" style="display: table-cell; white-space: nowrap; line-height: 1.5; max-width: 224px; text-align: center;"><span class="nodeLabel markdown-node-label" style=""><p>+Money voucherDiscount</p></span></div></foreignObject></g></g><g class="methods-group text" transform="translate(-111.73046875, 182.25)"/><g class="divider" style=""><path d="M-123.73046875 -113.25 C-48.11788478816895 -113.25, 27.4946991736621 -113.25, 123.73046875 -113.25 M-123.73046875 -113.25 C-66.53844141565547 -113.25, -9.34641408131094 -113.25, 123.73046875 -113.25" stroke="#64748b" stroke-width="1.3" fill="none" stroke-dasharray="0 0" style=""/></g><g class="divider" style=""><path d="M-123.73046875 158.25 C-35.915773462122544 158.25, 51.89892182575491 158.25, 123.73046875 158.25 M-123.73046875 158.25 C-70.30290897859996 158.25, -16.875349207199903 158.25, 123.73046875 158.25" stroke="#64748b" stroke-width="1.3" fill="none" stroke-dasharray="0 0" style=""/></g></g><g class="node default" id="classId-GatewayService-4" transform="translate(962.61328125, 649.75)"><g class="basic label-container"><path d="M-244.20703125 -95.25 L244.20703125 -95.25 L244.20703125 95.25 L-244.20703125 95.25" stroke="none" stroke-width="0" fill="#ffffff" style=""/><path d="M-244.20703125 -95.25 C-142.88511141308425 -95.25, -41.56319157616849 -95.25, 244.20703125 -95.25 M-244.20703125 -95.25 C-136.3307370058459 -95.25, -28.45444276169181 -95.25, 244.20703125 -95.25 M244.20703125 -95.25 C244.20703125 -43.48753845397499, 244.20703125 8.274923092050017, 244.20703125 95.25 M244.20703125 -95.25 C244.20703125 -52.104609079037125, 244.20703125 -8.95921815807425, 244.20703125 95.25 M244.20703125 95.25 C59.35753428190122 95.25, -125.49196268619755 95.25, -244.20703125 95.25 M244.20703125 95.25 C88.22856082651396 95.25, -67.74990959697209 95.25, -244.20703125 95.25 M-244.20703125 95.25 C-244.20703125 42.272343302293415, -244.20703125 -10.705313395413171, -244.20703125 -95.25 M-244.20703125 95.25 C-244.20703125 47.17695572121058, -244.20703125 -0.8960885575788353, -244.20703125 -95.25" stroke="#64748b" stroke-width="1.3" fill="none" stroke-dasharray="0 0" style=""/></g><g class="annotation-group text" transform="translate(-97.1328125, -71.25)"><g class="label" style="" transform="translate(0,-11.25)"><foreignObject width="194.265625" height="22.5"><div xmlns="http://www.w3.org/1999/xhtml" style="display: table-cell; white-space: nowrap; line-height: 1.5; max-width: 240px; text-align: center;"><span class="nodeLabel markdown-node-label" style=""><p>«Domain Service - Interface»</p></span></div></foreignObject></g></g><g class="label-group text" transform="translate(-57.5390625, -48.75)"><g class="label" style="font-weight: bolder" transform="translate(0,-11.25)"><foreignObject width="115.078125" height="22.5"><div xmlns="http://www.w3.org/1999/xhtml" style="display: table-cell; white-space: nowrap; line-height: 1.5; max-width: 155px; text-align: center;"><span class="nodeLabel markdown-node-label" style=""><p>GatewayService</p></span></div></foreignObject></g></g><g class="members-group text" transform="translate(-232.20703125, -2.25)"/><g class="methods-group text" transform="translate(-232.20703125, 27.75)"><g class="label" style="" transform="translate(0,-11.25)"><foreignObject width="295.53125" height="22.5"><div xmlns="http://www.w3.org/1999/xhtml" style="display: table-cell; white-space: nowrap; line-height: 1.5; max-width: 349px; text-align: center;"><span class="nodeLabel markdown-node-label" style=""><p>+initiatePayment(amount, returnUrl) : PayUrl</p></span></div></foreignObject></g><g class="label" style="" transform="translate(0,11.25)"><foreignObject width="195.546875" height="22.5"><div xmlns="http://www.w3.org/1999/xhtml" style="display: table-cell; white-space: nowrap; line-height: 1.5; max-width: 252px; text-align: center;"><span class="nodeLabel markdown-node-label" style=""><p>+verifyIpn(payload) : Boolean</p></span></div></foreignObject></g><g class="label" style="" transform="translate(0,33.75)"><foreignObject width="367.28125" height="22.5"><div xmlns="http://www.w3.org/1999/xhtml" style="display: table-cell; white-space: nowrap; line-height: 1.5; max-width: 411px; text-align: center;"><span class="nodeLabel markdown-node-label" style=""><p>+processRefund(transactionId, amount) : RefundResult</p></span></div></foreignObject></g></g><g class="divider" style=""><path d="M-244.20703125 -26.25 C-71.65619968758239 -26.25, 100.89463187483523 -26.25, 244.20703125 -26.25 M-244.20703125 -26.25 C-89.99022982965911 -26.25, 64.22657159068177 -26.25, 244.20703125 -26.25" stroke="#64748b" stroke-width="1.3" fill="none" stroke-dasharray="0 0" style=""/></g><g class="divider" style=""><path d="M-244.20703125 -2.25 C-84.03161722718895 -2.25, 76.14379679562211 -2.25, 244.20703125 -2.25 M-244.20703125 -2.25 C-68.88843237363031 -2.25, 106.43016650273938 -2.25, 244.20703125 -2.25" stroke="#64748b" stroke-width="1.3" fill="none" stroke-dasharray="0 0" style=""/></g></g><g class="node default" id="classId-MomoGateway-5" transform="translate(832.134765625, 977.25)"><g class="basic label-container"><path d="M-105.37109375 -95.25 L105.37109375 -95.25 L105.37109375 95.25 L-105.37109375 95.25" stroke="none" stroke-width="0" fill="#ffffff" style=""/><path d="M-105.37109375 -95.25 C-25.14962450589921 -95.25, 55.07184473820158 -95.25, 105.37109375 -95.25 M-105.37109375 -95.25 C-30.639217230099334 -95.25, 44.09265928980133 -95.25, 105.37109375 -95.25 M105.37109375 -95.25 C105.37109375 -29.0892673753996, 105.37109375 37.0714652492008, 105.37109375 95.25 M105.37109375 -95.25 C105.37109375 -46.04873588237527, 105.37109375 3.152528235249463, 105.37109375 95.25 M105.37109375 95.25 C60.2659253396845 95.25, 15.160756929369 95.25, -105.37109375 95.25 M105.37109375 95.25 C25.062508125904998 95.25, -55.246077498190004 95.25, -105.37109375 95.25 M-105.37109375 95.25 C-105.37109375 31.704568799297483, -105.37109375 -31.840862401405033, -105.37109375 -95.25 M-105.37109375 95.25 C-105.37109375 55.54777571777503, -105.37109375 15.845551435550064, -105.37109375 -95.25" stroke="#64748b" stroke-width="1.3" fill="none" stroke-dasharray="0 0" style=""/></g><g class="annotation-group text" transform="translate(-52.53125, -71.25)"><g class="label" style="" transform="translate(0,-11.25)"><foreignObject width="105.0625" height="22.5"><div xmlns="http://www.w3.org/1999/xhtml" style="display: table-cell; white-space: nowrap; line-height: 1.5; max-width: 153px; text-align: center;"><span class="nodeLabel markdown-node-label" style=""><p>«Infrastructure»</p></span></div></foreignObject></g></g><g class="label-group text" transform="translate(-52.9296875, -48.75)"><g class="label" style="font-weight: bolder" transform="translate(0,-11.25)"><foreignObject width="105.859375" height="22.5"><div xmlns="http://www.w3.org/1999/xhtml" style="display: table-cell; white-space: nowrap; line-height: 1.5; max-width: 152px; text-align: center;"><span class="nodeLabel markdown-node-label" style=""><p>MomoGateway</p></span></div></foreignObject></g></g><g class="members-group text" transform="translate(-93.37109375, -2.25)"/><g class="methods-group text" transform="translate(-93.37109375, 27.75)"><g class="label" style="" transform="translate(0,-11.25)"><foreignObject width="133.8125" height="22.5"><div xmlns="http://www.w3.org/1999/xhtml" style="display: table-cell; white-space: nowrap; line-height: 1.5; max-width: 188px; text-align: center;"><span class="nodeLabel markdown-node-label" style=""><p>+initiatePayment(...)</p></span></div></foreignObject></g><g class="label" style="" transform="translate(0,11.25)"><foreignObject width="87.953125" height="22.5"><div xmlns="http://www.w3.org/1999/xhtml" style="display: table-cell; white-space: nowrap; line-height: 1.5; max-width: 147px; text-align: center;"><span class="nodeLabel markdown-node-label" style=""><p>+verifyIpn(...)</p></span></div></foreignObject></g><g class="label" style="" transform="translate(0,33.75)"><foreignObject width="132.15625" height="22.5"><div xmlns="http://www.w3.org/1999/xhtml" style="display: table-cell; white-space: nowrap; line-height: 1.5; max-width: 182px; text-align: center;"><span class="nodeLabel markdown-node-label" style=""><p>+processRefund(...)</p></span></div></foreignObject></g></g><g class="divider" style=""><path d="M-105.37109375 -26.25 C-54.61026778287972 -26.25, -3.849441815759434 -26.25, 105.37109375 -26.25 M-105.37109375 -26.25 C-50.261549066057256 -26.25, 4.847995617885488 -26.25, 105.37109375 -26.25" stroke="#64748b" stroke-width="1.3" fill="none" stroke-dasharray="0 0" style=""/></g><g class="divider" style=""><path d="M-105.37109375 -2.25 C-22.94405477929459 -2.25, 59.48298419141082 -2.25, 105.37109375 -2.25 M-105.37109375 -2.25 C-60.745744927702304 -2.25, -16.12039610540461 -2.25, 105.37109375 -2.25" stroke="#64748b" stroke-width="1.3" fill="none" stroke-dasharray="0 0" style=""/></g></g><g class="node default" id="classId-VnpayGateway-6" transform="translate(1093.091796875, 977.25)"><g class="basic label-container"><path d="M-105.5859375 -95.25 L105.5859375 -95.25 L105.5859375 95.25 L-105.5859375 95.25" stroke="none" stroke-width="0" fill="#ffffff" style=""/><path d="M-105.5859375 -95.25 C-22.481742085912373 -95.25, 60.622453328175254 -95.25, 105.5859375 -95.25 M-105.5859375 -95.25 C-61.77599485164666 -95.25, -17.966052203293316 -95.25, 105.5859375 -95.25 M105.5859375 -95.25 C105.5859375 -39.34714671478776, 105.5859375 16.555706570424476, 105.5859375 95.25 M105.5859375 -95.25 C105.5859375 -51.61506260182535, 105.5859375 -7.980125203650701, 105.5859375 95.25 M105.5859375 95.25 C48.59021314826981 95.25, -8.405511203460378 95.25, -105.5859375 95.25 M105.5859375 95.25 C22.253366679494903 95.25, -61.079204141010194 95.25, -105.5859375 95.25 M-105.5859375 95.25 C-105.5859375 40.76248776503473, -105.5859375 -13.725024469930545, -105.5859375 -95.25 M-105.5859375 95.25 C-105.5859375 51.43032783161547, -105.5859375 7.6106556632309434, -105.5859375 -95.25" stroke="#64748b" stroke-width="1.3" fill="none" stroke-dasharray="0 0" style=""/></g><g class="annotation-group text" transform="translate(-52.53125, -71.25)"><g class="label" style="" transform="translate(0,-11.25)"><foreignObject width="105.0625" height="22.5"><div xmlns="http://www.w3.org/1999/xhtml" style="display: table-cell; white-space: nowrap; line-height: 1.5; max-width: 153px; text-align: center;"><span class="nodeLabel markdown-node-label" style=""><p>«Infrastructure»</p></span></div></foreignObject></g></g><g class="label-group text" transform="translate(-53.359375, -48.75)"><g class="label" style="font-weight: bolder" transform="translate(0,-11.25)"><foreignObject width="106.71875" height="22.5"><div xmlns="http://www.w3.org/1999/xhtml" style="display: table-cell; white-space: nowrap; line-height: 1.5; max-width: 152px; text-align: center;"><span class="nodeLabel markdown-node-label" style=""><p>VnpayGateway</p></span></div></foreignObject></g></g><g class="members-group text" transform="translate(-93.5859375, -2.25)"/><g class="methods-group text" transform="translate(-93.5859375, 27.75)"><g class="label" style="" transform="translate(0,-11.25)"><foreignObject width="133.8125" height="22.5"><div xmlns="http://www.w3.org/1999/xhtml" style="display: table-cell; white-space: nowrap; line-height: 1.5; max-width: 188px; text-align: center;"><span class="nodeLabel markdown-node-label" style=""><p>+initiatePayment(...)</p></span></div></foreignObject></g><g class="label" style="" transform="translate(0,11.25)"><foreignObject width="87.953125" height="22.5"><div xmlns="http://www.w3.org/1999/xhtml" style="display: table-cell; white-space: nowrap; line-height: 1.5; max-width: 147px; text-align: center;"><span class="nodeLabel markdown-node-label" style=""><p>+verifyIpn(...)</p></span></div></foreignObject></g><g class="label" style="" transform="translate(0,33.75)"><foreignObject width="132.15625" height="22.5"><div xmlns="http://www.w3.org/1999/xhtml" style="display: table-cell; white-space: nowrap; line-height: 1.5; max-width: 182px; text-align: center;"><span class="nodeLabel markdown-node-label" style=""><p>+processRefund(...)</p></span></div></foreignObject></g></g><g class="divider" style=""><path d="M-105.5859375 -26.25 C-58.89503145620758 -26.25, -12.204125412415166 -26.25, 105.5859375 -26.25 M-105.5859375 -26.25 C-60.83598691591179 -26.25, -16.08603633182358 -26.25, 105.5859375 -26.25" stroke="#64748b" stroke-width="1.3" fill="none" stroke-dasharray="0 0" style=""/></g><g class="divider" style=""><path d="M-105.5859375 -2.25 C-43.66751166110485 -2.25, 18.250914177790307 -2.25, 105.5859375 -2.25 M-105.5859375 -2.25 C-48.692871679265174 -2.25, 8.200194141469652 -2.25, 105.5859375 -2.25" stroke="#64748b" stroke-width="1.3" fill="none" stroke-dasharray="0 0" style=""/></g></g></g></g></g></svg>