<svg id="my-svg" width="100%" xmlns="http://www.w3.org/2000/svg" xmlns:xlink="http://www.w3.org/1999/xlink" class="statediagram" style="max-width: 904.152px; background-color: white;" viewBox="0 0 904.15234375 1033" role="graphics-document document" aria-roledescription="stateDiagram"><style>#my-svg{font-family:Arial,Helvetica,sans-serif;font-size:15px;fill:#111111;}@keyframes edge-animation-frame{from{stroke-dashoffset:0;}}@keyframes dash{to{stroke-dashoffset:0;}}#my-svg .edge-animation-slow{stroke-dasharray:9,5!important;stroke-dashoffset:900;animation:dash 50s linear infinite;stroke-linecap:round;}#my-svg .edge-animation-fast{stroke-dasharray:9,5!important;stroke-dashoffset:900;animation:dash 20s linear infinite;stroke-linecap:round;}#my-svg .error-icon{fill:#fef3c7;}#my-svg .error-text{fill:#111111;stroke:#111111;}#my-svg .edge-thickness-normal{stroke-width:1px;}#my-svg .edge-thickness-thick{stroke-width:3.5px;}#my-svg .edge-pattern-solid{stroke-dasharray:0;}#my-svg .edge-thickness-invisible{stroke-width:0;fill:none;}#my-svg .edge-pattern-dashed{stroke-dasharray:3;}#my-svg .edge-pattern-dotted{stroke-dasharray:2;}#my-svg .marker{fill:#374151;stroke:#374151;}#my-svg .marker.cross{stroke:#374151;}#my-svg svg{font-family:Arial,Helvetica,sans-serif;font-size:15px;}#my-svg p{margin:0;}#my-svg defs #statediagram-barbEnd{fill:#374151;stroke:#374151;}#my-svg g.stateGroup text{fill:#64748b;stroke:none;font-size:10px;}#my-svg g.stateGroup text{fill:#111111;stroke:none;font-size:10px;}#my-svg g.stateGroup .state-title{font-weight:bolder;fill:#111111;}#my-svg g.stateGroup rect{fill:#ffffff;stroke:#64748b;}#my-svg g.stateGroup line{stroke:#374151;stroke-width:1;}#my-svg .transition{stroke:#374151;stroke-width:1;fill:none;}#my-svg .stateGroup .composit{fill:#ffffff;border-bottom:1px;}#my-svg .stateGroup .alt-composit{fill:#e0e0e0;border-bottom:1px;}#my-svg .state-note{stroke:hsl(52.6829268293, 60%, 73.9215686275%);fill:#fff5ad;}#my-svg .state-note text{fill:#333;stroke:none;font-size:10px;}#my-svg .stateLabel .box{stroke:none;stroke-width:0;fill:#ffffff;opacity:0.5;}#my-svg .edgeLabel .label rect{fill:#ffffff;opacity:0.5;}#my-svg .edgeLabel{background-color:#ffffff;text-align:center;}#my-svg .edgeLabel p{background-color:#ffffff;}#my-svg .edgeLabel rect{opacity:0.5;background-color:#ffffff;fill:#ffffff;}#my-svg .edgeLabel .label text{fill:#111111;}#my-svg .label div .edgeLabel{color:#111111;}#my-svg .stateLabel text{fill:#111111;font-size:10px;font-weight:bold;}#my-svg .node circle.state-start{fill:#374151;stroke:#374151;}#my-svg .node .fork-join{fill:#374151;stroke:#374151;}#my-svg .node circle.state-end{fill:#64748b;stroke:#ffffff;stroke-width:1.5;}#my-svg .end-state-inner{fill:#ffffff;stroke-width:1.5;}#my-svg .node rect{fill:#ffffff;stroke:#64748b;stroke-width:1px;}#my-svg .node polygon{fill:#ffffff;stroke:#64748b;stroke-width:1px;}#my-svg #statediagram-barbEnd{fill:#374151;}#my-svg .statediagram-cluster rect{fill:#ffffff;stroke:#64748b;stroke-width:1px;}#my-svg .cluster-label,#my-svg .nodeLabel{color:#111111;}#my-svg .statediagram-cluster rect.outer{rx:5px;ry:5px;}#my-svg .statediagram-state .divider{stroke:#64748b;}#my-svg .statediagram-state .title-state{rx:5px;ry:5px;}#my-svg .statediagram-cluster.statediagram-cluster .inner{fill:#ffffff;}#my-svg .statediagram-cluster.statediagram-cluster-alt .inner{fill:#fef3c7;}#my-svg .statediagram-cluster .inner{rx:0;ry:0;}#my-svg .statediagram-state rect.basic{rx:5px;ry:5px;}#my-svg .statediagram-state rect.divider{stroke-dasharray:10,10;fill:#fef3c7;}#my-svg .note-edge{stroke-dasharray:5;}#my-svg .statediagram-note rect{fill:#fff5ad;stroke:hsl(52.6829268293, 60%, 73.9215686275%);stroke-width:1px;rx:0;ry:0;}#my-svg .statediagram-note rect{fill:#fff5ad;stroke:hsl(52.6829268293, 60%, 73.9215686275%);stroke-width:1px;rx:0;ry:0;}#my-svg .statediagram-note text{fill:#333;}#my-svg .statediagram-note .nodeLabel{color:#333;}#my-svg .statediagram .edgeLabel{color:red;}#my-svg #dependencyStart,#my-svg #dependencyEnd{fill:#374151;stroke:#374151;stroke-width:1;}#my-svg .statediagramTitleText{text-anchor:middle;font-size:18px;fill:#111111;}#my-svg :root{--mermaid-font-family:"trebuchet ms",verdana,arial,sans-serif;}</style><g><defs><marker id="my-svg_stateDiagram-barbEnd" refX="19" refY="7" markerWidth="20" markerHeight="14" markerUnits="userSpaceOnUse" orient="auto"><path d="M 19,7 L9,13 L14,7 L9,1 Z"/></marker></defs><g class="root"><g class="clusters"><g class="note-cluster" id="IN_PROGRESS----parent"><rect x="197.6796875" y="813.5" width="252.578125" height="147.5" fill="none"/></g></g><g class="edgePaths"><path d="M495.023,22L495.023,29.917C495.023,37.833,495.023,53.667,495.023,69.5C495.023,85.333,495.023,101.167,495.023,109.083L495.023,117" id="edge0" class="edge-thickness-normal edge-pattern-solid transition" style="fill:none;;;fill:none" data-edge="true" data-et="edge" data-id="edge0" data-points="W3sieCI6NDk1LjAyMzQzNzUsInkiOjIyfSx7IngiOjQ5NS4wMjM0Mzc1LCJ5Ijo2OS41fSx7IngiOjQ5NS4wMjM0Mzc1LCJ5IjoxMTd9XQ==" marker-end="url(#my-svg_stateDiagram-barbEnd)"/><path d="M477.72,155.5L470.604,163.417C463.488,171.333,449.256,187.167,442.14,203C435.023,218.833,435.023,234.667,435.023,242.583L435.023,250.5" id="edge1" class="edge-thickness-normal edge-pattern-solid transition" style="fill:none;;;fill:none" data-edge="true" data-et="edge" data-id="edge1" data-points="W3sieCI6NDc3LjcyMDA2NjcxMzQ4MzE2LCJ5IjoxNTUuNX0seyJ4Ijo0MzUuMDIzNDM3NSwieSI6MjAzfSx7IngiOjQzNS4wMjM0Mzc1LCJ5IjoyNTAuNX1d" marker-end="url(#my-svg_stateDiagram-barbEnd)"/><path d="M417.72,289L410.604,296.917C403.488,304.833,389.256,320.667,382.14,337.042C375.023,353.417,375.023,370.333,375.023,378.792L375.023,387.25" id="edge2" class="edge-thickness-normal edge-pattern-solid transition" style="fill:none;;;fill:none" data-edge="true" data-et="edge" data-id="edge2" data-points="W3sieCI6NDE3LjcyMDA2NjcxMzQ4MzE2LCJ5IjoyODl9LHsieCI6Mzc1LjAyMzQzNzUsInkiOjMzNi41fSx7IngiOjM3NS4wMjM0Mzc1LCJ5IjozODcuMjV9XQ==" marker-end="url(#my-svg_stateDiagram-barbEnd)"/><path d="M352.545,425.75L342.669,434.208C332.792,442.667,313.039,459.583,303.162,475.958C293.285,492.333,293.285,508.167,293.285,516.083L293.285,524" id="edge3" class="edge-thickness-normal edge-pattern-solid transition" style="fill:none;;;fill:none" data-edge="true" data-et="edge" data-id="edge3" data-points="W3sieCI6MzUyLjU0NTQxMDE1NjI1LCJ5Ijo0MjUuNzV9LHsieCI6MjkzLjI4NTE1NjI1LCJ5Ijo0NzYuNX0seyJ4IjoyOTMuMjg1MTU2MjUsInkiOjUyNH1d" marker-end="url(#my-svg_stateDiagram-barbEnd)"/><path d="M270.992,562.5L261.824,570.417C252.656,578.333,234.32,594.167,225.152,610C215.984,625.833,215.984,641.667,215.984,649.583L215.984,657.5" id="edge4" class="edge-thickness-normal edge-pattern-solid transition" style="fill:none;;;fill:none" data-edge="true" data-et="edge" data-id="edge4" data-points="W3sieCI6MjcwLjk5MjQyMTU4MjM5NywieSI6NTYyLjV9LHsieCI6MjE1Ljk4NDM3NSwieSI6NjEwfSx7IngiOjIxNS45ODQzNzUsInkiOjY1Ny41fV0=" marker-end="url(#my-svg_stateDiagram-barbEnd)"/><path d="M189.334,696L175.779,705.792C162.223,715.583,135.111,735.167,121.556,754.75C108,774.333,108,793.917,108,812.792C108,831.667,108,849.833,108,858.917L108,868" id="edge5" class="edge-thickness-normal edge-pattern-solid transition" style="fill:none;;;fill:none" data-edge="true" data-et="edge" data-id="edge5" data-points="W3sieCI6MTg5LjMzNDM4NTAxNjAyNTY0LCJ5Ijo2OTZ9LHsieCI6MTA4LCJ5Ijo3NTQuNzV9LHsieCI6MTA4LCJ5Ijo4MTMuNX0seyJ4IjoxMDgsInkiOjg2OH1d" marker-end="url(#my-svg_stateDiagram-barbEnd)"/><path d="M537.195,145.598L580.355,155.165C623.514,164.732,709.833,183.866,752.993,204.558C796.152,225.25,796.152,247.5,796.152,269.75C796.152,292,796.152,314.25,796.152,337.042C796.152,359.833,796.152,383.167,796.152,406.5C796.152,429.833,796.152,453.167,796.152,475.958C796.152,498.75,796.152,521,796.152,543.25C796.152,565.5,796.152,587.75,774.804,606.792C753.456,625.833,710.759,641.667,689.411,649.583L668.062,657.5" id="edge6" class="edge-thickness-normal edge-pattern-solid transition" style="fill:none;;;fill:none" data-edge="true" data-et="edge" data-id="edge6" data-points="W3sieCI6NTM3LjE5NTMxMjUsInkiOjE0NS41OTgwNjUyMjMzMTMzfSx7IngiOjc5Ni4xNTIzNDM3NSwieSI6MjAzfSx7IngiOjc5Ni4xNTIzNDM3NSwieSI6MjY5Ljc1fSx7IngiOjc5Ni4xNTIzNDM3NSwieSI6MzM2LjV9LHsieCI6Nzk2LjE1MjM0Mzc1LCJ5Ijo0MDYuNX0seyJ4Ijo3OTYuMTUyMzQzNzUsInkiOjQ3Ni41fSx7IngiOjc5Ni4xNTIzNDM3NSwieSI6NTQzLjI1fSx7IngiOjc5Ni4xNTIzNDM3NSwieSI6NjEwfSx7IngiOjY2OC4wNjI0NTYxMDk1NTA2LCJ5Ijo2NTcuNX1d" marker-end="url(#my-svg_stateDiagram-barbEnd)"/><path d="M481.789,282.696L514.183,291.663C546.577,300.631,611.365,318.565,643.758,339.199C676.152,359.833,676.152,383.167,676.152,406.5C676.152,429.833,676.152,453.167,676.152,475.958C676.152,498.75,676.152,521,676.152,543.25C676.152,565.5,676.152,587.75,669.036,606.792C661.92,625.833,647.688,641.667,640.572,649.583L633.456,657.5" id="edge7" class="edge-thickness-normal edge-pattern-solid transition" style="fill:none;;;fill:none" data-edge="true" data-et="edge" data-id="edge7" data-points="W3sieCI6NDgxLjc4OTA2MjUsInkiOjI4Mi42OTU3OTUzMzEyMDU4fSx7IngiOjY3Ni4xNTIzNDM3NSwieSI6MzM2LjV9LHsieCI6Njc2LjE1MjM0Mzc1LCJ5Ijo0MDYuNX0seyJ4Ijo2NzYuMTUyMzQzNzUsInkiOjQ3Ni41fSx7IngiOjY3Ni4xNTIzNDM3NSwieSI6NTQzLjI1fSx7IngiOjY3Ni4xNTIzNDM3NSwieSI6NjEwfSx7IngiOjYzMy40NTU3MTQ1MzY1MTY5LCJ5Ijo2NTcuNX1d" marker-end="url(#my-svg_stateDiagram-barbEnd)"/><path d="M423.867,425.376L445.915,433.897C467.962,442.418,512.057,459.459,534.105,479.104C556.152,498.75,556.152,521,556.152,543.25C556.152,565.5,556.152,587.75,563.268,606.792C570.385,625.833,584.617,641.667,591.733,649.583L598.849,657.5" id="edge8" class="edge-thickness-normal edge-pattern-solid transition" style="fill:none;;;fill:none" data-edge="true" data-et="edge" data-id="edge8" data-points="W3sieCI6NDIzLjg2NzE4NzUsInkiOjQyNS4zNzY0MDQ0OTQzODIwM30seyJ4Ijo1NTYuMTUyMzQzNzUsInkiOjQ3Ni41fSx7IngiOjU1Ni4xNTIzNDM3NSwieSI6NTQzLjI1fSx7IngiOjU1Ni4xNTIzNDM3NSwieSI6NjEwfSx7IngiOjU5OC44NDg5NzI5NjM0ODMxLCJ5Ijo2NTcuNX1d" marker-end="url(#my-svg_stateDiagram-barbEnd)"/><path d="M337.648,562.5L355.892,570.417C374.136,578.333,410.625,594.167,448.917,610C487.21,625.833,527.307,641.667,547.355,649.583L567.403,657.5" id="edge9" class="edge-thickness-normal edge-pattern-solid transition" style="fill:none;;;fill:none" data-edge="true" data-et="edge" data-id="edge9" data-points="W3sieCI6MzM3LjY0NzU3NDMyMTE2MTEsInkiOjU2Mi41fSx7IngiOjQ0Ny4xMTMyODEyNSwieSI6NjEwfSx7IngiOjU2Ny40MDMyNTA4MTkyODg0LCJ5Ijo2NTcuNX1d" marker-end="url(#my-svg_stateDiagram-barbEnd)"/><path d="M108,906.5L108,915.583C108,924.667,108,942.833,108,956.083C108,969.333,108,977.667,161.343,987.053C214.686,996.439,321.371,1006.879,374.714,1012.099L428.057,1017.318" id="edge10" class="edge-thickness-normal edge-pattern-solid transition" style="fill:none;;;fill:none" data-edge="true" data-et="edge" data-id="edge10" data-points="W3sieCI6MTA4LCJ5Ijo5MDYuNX0seyJ4IjoxMDgsInkiOjk2MX0seyJ4IjoxMDgsInkiOjk4Nn0seyJ4Ijo0MjguMDU2NzExNTAyNDk4NSwieSI6MTAxNy4zMTgyODk3NDIwOTIxfV0=" marker-end="url(#my-svg_stateDiagram-barbEnd)"/><path d="M616.152,696L616.152,705.792C616.152,715.583,616.152,735.167,616.152,754.75C616.152,774.333,616.152,793.917,616.152,816C616.152,838.083,616.152,862.667,616.152,887.25C616.152,911.833,616.152,936.417,616.152,952.875C616.152,969.333,616.152,977.667,587.113,986.964C558.074,996.261,499.995,1006.521,470.956,1011.652L441.917,1016.782" id="edge11" class="edge-thickness-normal edge-pattern-solid transition" style="fill:none;;;fill:none" data-edge="true" data-et="edge" data-id="edge11" data-points="W3sieCI6NjE2LjE1MjM0Mzc1LCJ5Ijo2OTZ9LHsieCI6NjE2LjE1MjM0Mzc1LCJ5Ijo3NTQuNzV9LHsieCI6NjE2LjE1MjM0Mzc1LCJ5Ijo4MTMuNX0seyJ4Ijo2MTYuMTUyMzQzNzUsInkiOjg4Ny4yNX0seyJ4Ijo2MTYuMTUyMzQzNzUsInkiOjk2MX0seyJ4Ijo2MTYuMTUyMzQzNzUsInkiOjk4Nn0seyJ4Ijo0NDEuOTE2Njg3MzE5MzU1MiwieSI6MTAxNi43ODIxNzEyMjM4NzQ2fV0=" marker-end="url(#my-svg_stateDiagram-barbEnd)"/><path d="M242.634,696L256.19,705.792C269.746,715.583,296.857,735.167,310.413,754.75C323.969,774.333,323.969,793.917,323.969,807.875C323.969,821.833,323.969,830.167,323.969,834.333L323.969,838.5" id="IN_PROGRESS-IN_PROGRESS----note-12" class="edge-thickness-normal edge-pattern-solid transition note-edge" style="fill:none;;;fill:none" data-edge="true" data-et="edge" data-id="IN_PROGRESS-IN_PROGRESS----note-12" data-points="W3sieCI6MjQyLjYzNDM2NDk4Mzk3NDM2LCJ5Ijo2OTZ9LHsieCI6MzIzLjk2ODc1LCJ5Ijo3NTQuNzV9LHsieCI6MzIzLjk2ODc1LCJ5Ijo4MTMuNX0seyJ4IjozMjMuOTY4NzUsInkiOjgzOC41fV0="/></g><g class="edgeLabels"><g class="edgeLabel" transform="translate(495.0234375, 69.5)"><g class="label" data-id="edge0" transform="translate(-100, -22.5)"><foreignObject width="200" height="45"><div xmlns="http://www.w3.org/1999/xhtml" class="labelBkg" style="display: table; white-space: break-spaces; line-height: 1.5; max-width: 200px; text-align: center; width: 200px;"><span class="edgeLabel"><p>Khách đặt xe\nRideRequested</p></span></div></foreignObject></g></g><g class="edgeLabel" transform="translate(435.0234375, 203)"><g class="label" data-id="edge1" transform="translate(-100, -22.5)"><foreignObject width="200" height="45"><div xmlns="http://www.w3.org/1999/xhtml" class="labelBkg" style="display: table; white-space: break-spaces; line-height: 1.5; max-width: 200px; text-align: center; width: 200px;"><span class="edgeLabel"><p>Hệ thống tìm được tài xế\nDriverAssigned</p></span></div></foreignObject></g></g><g class="edgeLabel" transform="translate(375.0234375, 336.5)"><g class="label" data-id="edge2" transform="translate(-100, -22.5)"><foreignObject width="200" height="45"><div xmlns="http://www.w3.org/1999/xhtml" class="labelBkg" style="display: table; white-space: break-spaces; line-height: 1.5; max-width: 200px; text-align: center; width: 200px;"><span class="edgeLabel"><p>Tài xế nhấn Nhận cuốc\n[trong 30 giây]</p></span></div></foreignObject></g></g><g class="edgeLabel" transform="translate(293.28515625, 476.5)"><g class="label" data-id="edge3" transform="translate(-100, -22.5)"><foreignObject width="200" height="45"><div xmlns="http://www.w3.org/1999/xhtml" class="labelBkg" style="display: table; white-space: break-spaces; line-height: 1.5; max-width: 200px; text-align: center; width: 200px;"><span class="edgeLabel"><p>Tài xế xác nhận đã đến điểm đón</p></span></div></foreignObject></g></g><g class="edgeLabel" transform="translate(215.984375, 610)"><g class="label" data-id="edge4" transform="translate(-100, -22.5)"><foreignObject width="200" height="45"><div xmlns="http://www.w3.org/1999/xhtml" class="labelBkg" style="display: table; white-space: break-spaces; line-height: 1.5; max-width: 200px; text-align: center; width: 200px;"><span class="edgeLabel"><p>Tài xế xác nhận đã đón khách</p></span></div></foreignObject></g></g><g class="edgeLabel" transform="translate(108, 754.75)"><g class="label" data-id="edge5" transform="translate(-100, -33.75)"><foreignObject width="200" height="67.5"><div xmlns="http://www.w3.org/1999/xhtml" class="labelBkg" style="display: table; white-space: break-spaces; line-height: 1.5; max-width: 200px; text-align: center; width: 200px;"><span class="edgeLabel"><p>Tài xế hoàn thành chuyến\nRideCompleted → triggers Payment</p></span></div></foreignObject></g></g><g class="edgeLabel" transform="translate(796.15234375, 406.5)"><g class="label" data-id="edge6" transform="translate(-100, -22.5)"><foreignObject width="200" height="45"><div xmlns="http://www.w3.org/1999/xhtml" class="labelBkg" style="display: table; white-space: break-spaces; line-height: 1.5; max-width: 200px; text-align: center; width: 200px;"><span class="edgeLabel"><p>Không tìm được tài xế\nhoặc khách hủy</p></span></div></foreignObject></g></g><g class="edgeLabel" transform="translate(676.15234375, 476.5)"><g class="label" data-id="edge7" transform="translate(-100, -22.5)"><foreignObject width="200" height="45"><div xmlns="http://www.w3.org/1999/xhtml" class="labelBkg" style="display: table; white-space: break-spaces; line-height: 1.5; max-width: 200px; text-align: center; width: 200px;"><span class="edgeLabel"><p>Tài xế không phản hồi 30s\nhoặc khách hủy</p></span></div></foreignObject></g></g><g class="edgeLabel" transform="translate(556.15234375, 543.25)"><g class="label" data-id="edge8" transform="translate(-75.046875, -11.25)"><foreignObject width="150.09375" height="22.5"><div xmlns="http://www.w3.org/1999/xhtml" class="labelBkg" style="display: table-cell; white-space: nowrap; line-height: 1.5; max-width: 200px; text-align: center;"><span class="edgeLabel"><p>Tài xế hủy / khách hủy</p></span></div></foreignObject></g></g><g class="edgeLabel" transform="translate(447.11328125, 610)"><g class="label" data-id="edge9" transform="translate(-34.6015625, -11.25)"><foreignObject width="69.203125" height="22.5"><div xmlns="http://www.w3.org/1999/xhtml" class="labelBkg" style="display: table-cell; white-space: nowrap; line-height: 1.5; max-width: 200px; text-align: center;"><span class="edgeLabel"><p>Tài xế hủy</p></span></div></foreignObject></g></g><g class="edgeLabel"><g class="label" data-id="edge10" transform="translate(0, 0)"><foreignObject width="0" height="0"><div xmlns="http://www.w3.org/1999/xhtml" class="labelBkg" style="display: table-cell; white-space: nowrap; line-height: 1.5; max-width: 200px; text-align: center;"><span class="edgeLabel"></span></div></foreignObject></g></g><g class="edgeLabel"><g class="label" data-id="edge11" transform="translate(0, 0)"><foreignObject width="0" height="0"><div xmlns="http://www.w3.org/1999/xhtml" class="labelBkg" style="display: table-cell; white-space: nowrap; line-height: 1.5; max-width: 200px; text-align: center;"><span class="edgeLabel"></span></div></foreignObject></g></g><g class="edgeLabel"><g class="label" data-id="IN_PROGRESS-IN_PROGRESS----note-12" transform="translate(0, 0)"><foreignObject width="0" height="0"><div xmlns="http://www.w3.org/1999/xhtml" class="labelBkg" style="display: table-cell; white-space: nowrap; line-height: 1.5; max-width: 200px; text-align: center;"><span class="edgeLabel"></span></div></foreignObject></g></g></g><g class="nodes"><g class="node default" id="state-root_start-0" transform="translate(495.0234375, 15)"><circle class="state-start" r="7" width="14" height="14"/></g><g class="node  statediagram-state" id="state-PENDING-6" transform="translate(495.0234375, 136.25)"><rect class="basic label-container" style="" rx="5" ry="5" x="-42.171875" y="-19.25" width="84.34375" height="38.5"/><g class="label" style="" transform="translate(-34.171875, -11.25)"><rect/><foreignObject width="68.34375" height="22.5"><div xmlns="http://www.w3.org/1999/xhtml" style="display: table-cell; white-space: nowrap; line-height: 1.5; max-width: 200px; text-align: center;"><span class="nodeLabel"><p>PENDING</p></span></div></foreignObject></g></g><g class="node  statediagram-state" id="state-ASSIGNED-7" transform="translate(435.0234375, 269.75)"><rect class="basic label-container" style="" rx="5" ry="5" x="-46.765625" y="-19.25" width="93.53125" height="38.5"/><g class="label" style="" transform="translate(-38.765625, -11.25)"><rect/><foreignObject width="77.53125" height="22.5"><div xmlns="http://www.w3.org/1999/xhtml" style="display: table-cell; white-space: nowrap; line-height: 1.5; max-width: 200px; text-align: center;"><span class="nodeLabel"><p>ASSIGNED</p></span></div></foreignObject></g></g><g class="node  statediagram-state" id="state-ACCEPTED-8" transform="translate(375.0234375, 406.5)"><rect class="basic label-container" style="" rx="5" ry="5" x="-48.84375" y="-19.25" width="97.6875" height="38.5"/><g class="label" style="" transform="translate(-40.84375, -11.25)"><rect/><foreignObject width="81.6875" height="22.5"><div xmlns="http://www.w3.org/1999/xhtml" style="display: table-cell; white-space: nowrap; line-height: 1.5; max-width: 200px; text-align: center;"><span class="nodeLabel"><p>ACCEPTED</p></span></div></foreignObject></g></g><g class="node  statediagram-state" id="state-PICKING_UP-9" transform="translate(293.28515625, 543.25)"><rect class="basic label-container" style="" rx="5" ry="5" x="-53.4296875" y="-19.25" width="106.859375" height="38.5"/><g class="label" style="" transform="translate(-45.4296875, -11.25)"><rect/><foreignObject width="90.859375" height="22.5"><div xmlns="http://www.w3.org/1999/xhtml" style="display: table-cell; white-space: nowrap; line-height: 1.5; max-width: 200px; text-align: center;"><span class="nodeLabel"><p>PICKING_UP</p></span></div></foreignObject></g></g><g class="node  statediagram-state" id="state-IN_PROGRESS-12" transform="translate(215.984375, 676.75)"><rect class="basic label-container" style="" rx="5" ry="5" x="-62.1875" y="-19.25" width="124.375" height="38.5"/><g class="label" style="" transform="translate(-54.1875, -11.25)"><rect/><foreignObject width="108.375" height="22.5"><div xmlns="http://www.w3.org/1999/xhtml" style="display: table-cell; white-space: nowrap; line-height: 1.5; max-width: 200px; text-align: center;"><span class="nodeLabel"><p>IN_PROGRESS</p></span></div></foreignObject></g></g><g class="node  statediagram-state" id="state-COMPLETED-10" transform="translate(108, 887.25)"><rect class="basic label-container" style="" rx="5" ry="5" x="-54.6796875" y="-19.25" width="109.359375" height="38.5"/><g class="label" style="" transform="translate(-46.6796875, -11.25)"><rect/><foreignObject width="93.359375" height="22.5"><div xmlns="http://www.w3.org/1999/xhtml" style="display: table-cell; white-space: nowrap; line-height: 1.5; max-width: 200px; text-align: center;"><span class="nodeLabel"><p>COMPLETED</p></span></div></foreignObject></g></g><g class="node  statediagram-state" id="state-CANCELLED-11" transform="translate(616.15234375, 676.75)"><rect class="basic label-container" style="" rx="5" ry="5" x="-53.015625" y="-19.25" width="106.03125" height="38.5"/><g class="label" style="" transform="translate(-45.015625, -11.25)"><rect/><foreignObject width="90.03125" height="22.5"><div xmlns="http://www.w3.org/1999/xhtml" style="display: table-cell; white-space: nowrap; line-height: 1.5; max-width: 200px; text-align: center;"><span class="nodeLabel"><p>CANCELLED</p></span></div></foreignObject></g></g><g class="node default" id="state-root_end-11" transform="translate(435.0234375, 1018)"><g><path d="M7 0 C7 0.40517908122283747, 6.964012880168563 0.816513743121899, 6.893654271085456 1.2155372436685123 C6.823295662002349 1.6145607442151257, 6.716427752933756 2.013397210557766, 6.5778483455013586 2.394141003279681 C6.439268938068961 2.7748847960015954, 6.26476736710249 3.149104622578984, 6.062177826491071 3.4999999999999996 C5.859588285879653 3.8508953774210153, 5.622755194947063 4.189128084166967, 5.362311101832846 4.499513267805774 C5.10186700871863 4.809898451444582, 4.809898451444583 5.10186700871863, 4.499513267805775 5.362311101832846 C4.189128084166968 5.622755194947063, 3.8508953774210166 5.859588285879652, 3.500000000000001 6.06217782649107 C3.149104622578985 6.264767367102489, 2.7748847960015963 6.439268938068961, 2.3941410032796817 6.5778483455013586 C2.013397210557767 6.716427752933756, 1.6145607442151264 6.823295662002349, 1.2155372436685128 6.893654271085456 C0.8165137431218992 6.964012880168563, 0.4051790812228379 7, 4.286263797015736e-16 7 C-0.405179081222837 7, -0.8165137431218985 6.964012880168563, -1.2155372436685121 6.893654271085456 C-1.6145607442151257 6.823295662002349, -2.0133972105577667 6.716427752933756, -2.394141003279681 6.5778483455013586 C-2.774884796001595 6.439268938068961, -3.149104622578983 6.26476736710249, -3.4999999999999982 6.062177826491071 C-3.8508953774210135 5.859588285879653, -4.189128084166966 5.6227551949470636, -4.499513267805773 5.362311101832848 C-4.809898451444581 5.101867008718632, -5.101867008718628 4.809898451444586, -5.3623111018328435 4.499513267805779 C-5.622755194947059 4.189128084166971, -5.859588285879649 3.8508953774210206, -6.062177826491068 3.5000000000000053 C-6.264767367102486 3.14910462257899, -6.439268938068958 2.774884796001602, -6.577848345501356 2.394141003279688 C-6.716427752933754 2.0133972105577738, -6.823295662002347 1.614560744215134, -6.893654271085454 1.215537243668521 C-6.9640128801685615 0.816513743121908, -6.999999999999999 0.4051790812228472, -7 1.0183126166254463e-14 C-7.000000000000001 -0.40517908122282686, -6.964012880168565 -0.8165137431218878, -6.893654271085459 -1.215537243668501 C-6.823295662002352 -1.6145607442151142, -6.716427752933759 -2.0133972105577542, -6.577848345501363 -2.394141003279669 C-6.439268938068967 -2.7748847960015834, -6.264767367102496 -3.149104622578972, -6.062177826491078 -3.4999999999999876 C-5.859588285879661 -3.8508953774210033, -5.6227551949470715 -4.1891280841669545, -5.362311101832856 -4.499513267805763 C-5.10186700871864 -4.809898451444571, -4.809898451444594 -5.10186700871862, -4.499513267805787 -5.362311101832836 C-4.189128084166979 -5.622755194947053, -3.850895377421028 -5.859588285879643, -3.5000000000000133 -6.062177826491062 C-3.1491046225789985 -6.264767367102482, -2.774884796001611 -6.439268938068954, -2.3941410032796973 -6.577848345501353 C-2.0133972105577835 -6.716427752933752, -1.6145607442151435 -6.823295662002345, -1.2155372436685306 -6.893654271085453 C-0.8165137431219176 -6.9640128801685615, -0.40517908122285695 -6.999999999999999, -1.9937625952807352e-14 -7 C0.4051790812228171 -7.000000000000001, 0.8165137431218781 -6.964012880168565, 1.2155372436684913 -6.89365427108546 C1.6145607442151044 -6.823295662002354, 2.013397210557745 -6.716427752933763, 2.3941410032796595 -6.5778483455013665 C2.774884796001574 -6.43926893806897, 3.149104622578963 -6.2647673671025, 3.499999999999979 -6.062177826491083 C3.8508953774209953 -5.859588285879665, 4.189128084166947 -5.622755194947077, 4.499513267805756 -5.362311101832862 C4.809898451444564 -5.1018670087186475, 5.101867008718613 -4.809898451444602, 5.362311101832829 -4.499513267805796 C5.622755194947046 -4.189128084166989, 5.859588285879637 -3.8508953774210393, 6.062177826491056 -3.500000000000025 C6.2647673671024755 -3.1491046225790105, 6.439268938068949 -2.774884796001623, 6.577848345501348 -2.3941410032797092 C6.716427752933747 -2.0133972105577955, 6.823295662002342 -1.6145607442151562, 6.893654271085451 -1.2155372436685434 C6.96401288016856 -0.8165137431219307, 6.982275711847575 -0.2025895406114567, 7 -3.2800750208310675e-14 C7.017724288152425 0.2025895406113911, 7.017724288152424 -0.2025895406114242, 7 0" stroke="none" stroke-width="0" fill="#ffffff" style=""/><path d="M7 0 C7 0.40517908122283747, 6.964012880168563 0.816513743121899, 6.893654271085456 1.2155372436685123 C6.823295662002349 1.6145607442151257, 6.716427752933756 2.013397210557766, 6.5778483455013586 2.394141003279681 C6.439268938068961 2.7748847960015954, 6.26476736710249 3.149104622578984, 6.062177826491071 3.4999999999999996 C5.859588285879653 3.8508953774210153, 5.622755194947063 4.189128084166967, 5.362311101832846 4.499513267805774 C5.10186700871863 4.809898451444582, 4.809898451444583 5.10186700871863, 4.499513267805775 5.362311101832846 C4.189128084166968 5.622755194947063, 3.8508953774210166 5.859588285879652, 3.500000000000001 6.06217782649107 C3.149104622578985 6.264767367102489, 2.7748847960015963 6.439268938068961, 2.3941410032796817 6.5778483455013586 C2.013397210557767 6.716427752933756, 1.6145607442151264 6.823295662002349, 1.2155372436685128 6.893654271085456 C0.8165137431218992 6.964012880168563, 0.4051790812228379 7, 4.286263797015736e-16 7 C-0.405179081222837 7, -0.8165137431218985 6.964012880168563, -1.2155372436685121 6.893654271085456 C-1.6145607442151257 6.823295662002349, -2.0133972105577667 6.716427752933756, -2.394141003279681 6.5778483455013586 C-2.774884796001595 6.439268938068961, -3.149104622578983 6.26476736710249, -3.4999999999999982 6.062177826491071 C-3.8508953774210135 5.859588285879653, -4.189128084166966 5.6227551949470636, -4.499513267805773 5.362311101832848 C-4.809898451444581 5.101867008718632, -5.101867008718628 4.809898451444586, -5.3623111018328435 4.499513267805779 C-5.622755194947059 4.189128084166971, -5.859588285879649 3.8508953774210206, -6.062177826491068 3.5000000000000053 C-6.264767367102486 3.14910462257899, -6.439268938068958 2.774884796001602, -6.577848345501356 2.394141003279688 C-6.716427752933754 2.0133972105577738, -6.823295662002347 1.614560744215134, -6.893654271085454 1.215537243668521 C-6.9640128801685615 0.816513743121908, -6.999999999999999 0.4051790812228472, -7 1.0183126166254463e-14 C-7.000000000000001 -0.40517908122282686, -6.964012880168565 -0.8165137431218878, -6.893654271085459 -1.215537243668501 C-6.823295662002352 -1.6145607442151142, -6.716427752933759 -2.0133972105577542, -6.577848345501363 -2.394141003279669 C-6.439268938068967 -2.7748847960015834, -6.264767367102496 -3.149104622578972, -6.062177826491078 -3.4999999999999876 C-5.859588285879661 -3.8508953774210033, -5.6227551949470715 -4.1891280841669545, -5.362311101832856 -4.499513267805763 C-5.10186700871864 -4.809898451444571, -4.809898451444594 -5.10186700871862, -4.499513267805787 -5.362311101832836 C-4.189128084166979 -5.622755194947053, -3.850895377421028 -5.859588285879643, -3.5000000000000133 -6.062177826491062 C-3.1491046225789985 -6.264767367102482, -2.774884796001611 -6.439268938068954, -2.3941410032796973 -6.577848345501353 C-2.0133972105577835 -6.716427752933752, -1.6145607442151435 -6.823295662002345, -1.2155372436685306 -6.893654271085453 C-0.8165137431219176 -6.9640128801685615, -0.40517908122285695 -6.999999999999999, -1.9937625952807352e-14 -7 C0.4051790812228171 -7.000000000000001, 0.8165137431218781 -6.964012880168565, 1.2155372436684913 -6.89365427108546 C1.6145607442151044 -6.823295662002354, 2.013397210557745 -6.716427752933763, 2.3941410032796595 -6.5778483455013665 C2.774884796001574 -6.43926893806897, 3.149104622578963 -6.2647673671025, 3.499999999999979 -6.062177826491083 C3.8508953774209953 -5.859588285879665, 4.189128084166947 -5.622755194947077, 4.499513267805756 -5.362311101832862 C4.809898451444564 -5.1018670087186475, 5.101867008718613 -4.809898451444602, 5.362311101832829 -4.499513267805796 C5.622755194947046 -4.189128084166989, 5.859588285879637 -3.8508953774210393, 6.062177826491056 -3.500000000000025 C6.2647673671024755 -3.1491046225790105, 6.439268938068949 -2.774884796001623, 6.577848345501348 -2.3941410032797092 C6.716427752933747 -2.0133972105577955, 6.823295662002342 -1.6145607442151562, 6.893654271085451 -1.2155372436685434 C6.96401288016856 -0.8165137431219307, 6.982275711847575 -0.2025895406114567, 7 -3.2800750208310675e-14 C7.017724288152425 0.2025895406113911, 7.017724288152424 -0.2025895406114242, 7 0" stroke="#374151" stroke-width="2" fill="none" stroke-dasharray="0 0" style=""/><g><path d="M2.5 0 C2.5 0.14470681472244193, 2.487147457203058 0.29161205111496386, 2.46201938253052 0.4341204441673258 C2.436891307857982 0.5766288372196877, 2.3987241974763416 0.7190704323420595, 2.3492315519647713 0.8550503583141718 C2.299738906453201 0.991030284286284, 2.2374169168223177 1.124680222349637, 2.165063509461097 1.2499999999999998 C2.092710102099876 1.3753197776503625, 2.0081268553382365 1.496117172916774, 1.915111107797445 1.6069690242163481 C1.8220953602566536 1.7178208755159223, 1.7178208755159226 1.8220953602566536, 1.6069690242163484 1.915111107797445 C1.4961171729167742 2.0081268553382365, 1.375319777650363 2.0927101020998755, 1.2500000000000002 2.1650635094610964 C1.1246802223496375 2.2374169168223172, 0.9910302842862845 2.2997389064532, 0.8550503583141721 2.349231551964771 C0.7190704323420597 2.3987241974763416, 0.576628837219688 2.436891307857982, 0.43412044416732604 2.46201938253052 C0.291612051114964 2.487147457203058, 0.14470681472244212 2.5, 1.5308084989341916e-16 2.5 C-0.1447068147224418 2.5, -0.2916120511149638 2.487147457203058, -0.43412044416732576 2.46201938253052 C-0.5766288372196877 2.436891307857982, -0.7190704323420595 2.3987241974763416, -0.8550503583141718 2.3492315519647713 C-0.991030284286284 2.299738906453201, -1.124680222349637 2.2374169168223177, -1.2499999999999996 2.165063509461097 C-1.375319777650362 2.092710102099876, -1.4961171729167733 2.008126855338237, -1.6069690242163475 1.9151111077974459 C-1.7178208755159217 1.8220953602566548, -1.822095360256653 1.7178208755159234, -1.9151111077974443 1.6069690242163495 C-2.0081268553382357 1.4961171729167755, -2.0927101020998746 1.3753197776503645, -2.1650635094610955 1.250000000000002 C-2.2374169168223164 1.1246802223496395, -2.2997389064531992 0.9910302842862865, -2.34923155196477 0.8550503583141743 C-2.3987241974763407 0.7190704323420621, -2.436891307857981 0.5766288372196907, -2.4620193825305194 0.434120444167329 C-2.487147457203058 0.29161205111496724, -2.5 0.14470681472244545, -2.5 3.636830773662308e-15 C-2.5 -0.14470681472243818, -2.4871474572030587 -0.2916120511149599, -2.4620193825305208 -0.4341204441673218 C-2.436891307857983 -0.5766288372196837, -2.398724197476343 -0.7190704323420553, -2.3492315519647726 -0.8550503583141675 C-2.2997389064532023 -0.9910302842862798, -2.23741691682232 -1.1246802223496328, -2.165063509461099 -1.2499999999999956 C-2.092710102099878 -1.3753197776503583, -2.00812685533824 -1.4961171729167695, -1.9151111077974488 -1.606969024216344 C-1.8220953602566576 -1.7178208755159183, -1.7178208755159263 -1.82209536025665, -1.6069690242163523 -1.9151111077974416 C-1.4961171729167784 -2.0081268553382334, -1.3753197776503672 -2.0927101020998724, -1.2500000000000047 -2.1650635094610937 C-1.1246802223496422 -2.237416916822315, -0.9910302842862897 -2.299738906453198, -0.8550503583141776 -2.3492315519647686 C-0.7190704323420656 -2.3987241974763394, -0.5766288372196942 -2.4368913078579806, -0.43412044416733236 -2.462019382530519 C-0.29161205111497057 -2.4871474572030574, -0.1447068147224489 -2.4999999999999996, -7.120580697431198e-15 -2.5 C0.14470681472243463 -2.5000000000000004, 0.29161205111495647 -2.487147457203059, 0.4341204441673183 -2.4620193825305217 C0.5766288372196802 -2.436891307857984, 0.7190704323420518 -2.3987241974763442, 0.8550503583141642 -2.349231551964774 C0.9910302842862766 -2.2997389064532037, 1.1246802223496295 -2.2374169168223212, 1.2499999999999925 -2.165063509461101 C1.3753197776503554 -2.0927101020998804, 1.4961171729167668 -2.008126855338242, 1.6069690242163412 -1.915111107797451 C1.7178208755159157 -1.82209536025666, 1.8220953602566472 -1.7178208755159294, 1.915111107797439 -1.6069690242163557 C2.0081268553382308 -1.496117172916782, 2.09271010209987 -1.3753197776503712, 2.1650635094610915 -1.2500000000000089 C2.237416916822313 -1.1246802223496466, 2.299738906453196 -0.9910302842862939, 2.3492315519647673 -0.855050358314182 C2.3987241974763385 -0.71907043234207, 2.4368913078579792 -0.5766288372196986, 2.462019382530518 -0.4341204441673369 C2.487147457203057 -0.29161205111497523, 2.4936698970884197 -0.07235340736123454, 2.5 -1.1714553645825241e-14 C2.5063301029115803 0.07235340736121111, 2.50633010291158 -0.07235340736122292, 2.5 0" stroke="none" stroke-width="0" fill="#64748b" style=""/><path d="M2.5 0 C2.5 0.14470681472244193, 2.487147457203058 0.29161205111496386, 2.46201938253052 0.4341204441673258 C2.436891307857982 0.5766288372196877, 2.3987241974763416 0.7190704323420595, 2.3492315519647713 0.8550503583141718 C2.299738906453201 0.991030284286284, 2.2374169168223177 1.124680222349637, 2.165063509461097 1.2499999999999998 C2.092710102099876 1.3753197776503625, 2.0081268553382365 1.496117172916774, 1.915111107797445 1.6069690242163481 C1.8220953602566536 1.7178208755159223, 1.7178208755159226 1.8220953602566536, 1.6069690242163484 1.915111107797445 C1.4961171729167742 2.0081268553382365, 1.375319777650363 2.0927101020998755, 1.2500000000000002 2.1650635094610964 C1.1246802223496375 2.2374169168223172, 0.9910302842862845 2.2997389064532, 0.8550503583141721 2.349231551964771 C0.7190704323420597 2.3987241974763416, 0.576628837219688 2.436891307857982, 0.43412044416732604 2.46201938253052 C0.291612051114964 2.487147457203058, 0.14470681472244212 2.5, 1.5308084989341916e-16 2.5 C-0.1447068147224418 2.5, -0.2916120511149638 2.487147457203058, -0.43412044416732576 2.46201938253052 C-0.5766288372196877 2.436891307857982, -0.7190704323420595 2.3987241974763416, -0.8550503583141718 2.3492315519647713 C-0.991030284286284 2.299738906453201, -1.124680222349637 2.2374169168223177, -1.2499999999999996 2.165063509461097 C-1.375319777650362 2.092710102099876, -1.4961171729167733 2.008126855338237, -1.6069690242163475 1.9151111077974459 C-1.7178208755159217 1.8220953602566548, -1.822095360256653 1.7178208755159234, -1.9151111077974443 1.6069690242163495 C-2.0081268553382357 1.4961171729167755, -2.0927101020998746 1.3753197776503645, -2.1650635094610955 1.250000000000002 C-2.2374169168223164 1.1246802223496395, -2.2997389064531992 0.9910302842862865, -2.34923155196477 0.8550503583141743 C-2.3987241974763407 0.7190704323420621, -2.436891307857981 0.5766288372196907, -2.4620193825305194 0.434120444167329 C-2.487147457203058 0.29161205111496724, -2.5 0.14470681472244545, -2.5 3.636830773662308e-15 C-2.5 -0.14470681472243818, -2.4871474572030587 -0.2916120511149599, -2.4620193825305208 -0.4341204441673218 C-2.436891307857983 -0.5766288372196837, -2.398724197476343 -0.7190704323420553, -2.3492315519647726 -0.8550503583141675 C-2.2997389064532023 -0.9910302842862798, -2.23741691682232 -1.1246802223496328, -2.165063509461099 -1.2499999999999956 C-2.092710102099878 -1.3753197776503583, -2.00812685533824 -1.4961171729167695, -1.9151111077974488 -1.606969024216344 C-1.8220953602566576 -1.7178208755159183, -1.7178208755159263 -1.82209536025665, -1.6069690242163523 -1.9151111077974416 C-1.4961171729167784 -2.0081268553382334, -1.3753197776503672 -2.0927101020998724, -1.2500000000000047 -2.1650635094610937 C-1.1246802223496422 -2.237416916822315, -0.9910302842862897 -2.299738906453198, -0.8550503583141776 -2.3492315519647686 C-0.7190704323420656 -2.3987241974763394, -0.5766288372196942 -2.4368913078579806, -0.43412044416733236 -2.462019382530519 C-0.29161205111497057 -2.4871474572030574, -0.1447068147224489 -2.4999999999999996, -7.120580697431198e-15 -2.5 C0.14470681472243463 -2.5000000000000004, 0.29161205111495647 -2.487147457203059, 0.4341204441673183 -2.4620193825305217 C0.5766288372196802 -2.436891307857984, 0.7190704323420518 -2.3987241974763442, 0.8550503583141642 -2.349231551964774 C0.9910302842862766 -2.2997389064532037, 1.1246802223496295 -2.2374169168223212, 1.2499999999999925 -2.165063509461101 C1.3753197776503554 -2.0927101020998804, 1.4961171729167668 -2.008126855338242, 1.6069690242163412 -1.915111107797451 C1.7178208755159157 -1.82209536025666, 1.8220953602566472 -1.7178208755159294, 1.915111107797439 -1.6069690242163557 C2.0081268553382308 -1.496117172916782, 2.09271010209987 -1.3753197776503712, 2.1650635094610915 -1.2500000000000089 C2.237416916822313 -1.1246802223496466, 2.299738906453196 -0.9910302842862939, 2.3492315519647673 -0.855050358314182 C2.3987241974763385 -0.71907043234207, 2.4368913078579792 -0.5766288372196986, 2.462019382530518 -0.4341204441673369 C2.487147457203057 -0.29161205111497523, 2.4936698970884197 -0.07235340736123454, 2.5 -1.1714553645825241e-14 C2.5063301029115803 0.07235340736121111, 2.50633010291158 -0.07235340736122292, 2.5 0" stroke="#64748b" stroke-width="2" fill="none" stroke-dasharray="0 0" style=""/></g></g></g><g class="node statediagram-note" id="state-IN_PROGRESS----note-12" transform="translate(323.96875, 887.25)"><g class="basic label-container"><path d="M-91.2890625 -48.75 L91.2890625 -48.75 L91.2890625 48.75 L-91.2890625 48.75" stroke="none" stroke-width="0" fill="#fff5ad" style=""/><path d="M-91.2890625 -48.75 C-28.739998357596114 -48.75, 33.80906578480777 -48.75, 91.2890625 -48.75 M-91.2890625 -48.75 C-22.298163587994296 -48.75, 46.69273532401141 -48.75, 91.2890625 -48.75 M91.2890625 -48.75 C91.2890625 -23.948553930636823, 91.2890625 0.8528921387263537, 91.2890625 48.75 M91.2890625 -48.75 C91.2890625 -23.382695193373948, 91.2890625 1.984609613252104, 91.2890625 48.75 M91.2890625 48.75 C21.93909664650245 48.75, -47.4108692069951 48.75, -91.2890625 48.75 M91.2890625 48.75 C46.628924322409475 48.75, 1.9687861448189494 48.75, -91.2890625 48.75 M-91.2890625 48.75 C-91.2890625 13.45258416519895, -91.2890625 -21.8448316696021, -91.2890625 -48.75 M-91.2890625 48.75 C-91.2890625 24.16451049330268, -91.2890625 -0.4209790133946427, -91.2890625 -48.75" stroke="hsl(52.6829268293, 60%, 73.9215686275%)" stroke-width="1.3" fill="none" stroke-dasharray="0 0" style=""/></g><g class="label" style="" transform="translate(-76.2890625, -33.75)"><rect/><foreignObject width="152.578125" height="67.5"><div xmlns="http://www.w3.org/1999/xhtml" style="display: table-cell; white-space: nowrap; line-height: 1.5; max-width: 200px; text-align: center;"><span class="nodeLabel"><p>Sau COMPLETED:<br />payment-service xử lý<br />wallet-service cập nhật</p></span></div></foreignObject></g></g></g></g></g></svg>